<svg width="122" height="132" viewBox="0 0 122 132" fill="none" xmlns="http://www.w3.org/2000/svg">
<g opacity="0.3">
<path d="M2.64242 127.786C3.10562 127.855 3.57748 127.74 3.95632 127.464C4.33608 127.188 4.59182 126.774 4.66821 126.31L4.6692 126.304L11.7712 79.3025C11.8362 79.16 11.8828 79.0084 11.9087 78.8512L11.9097 78.8446L19.0306 31.718C19.07 31.6094 19.0988 31.4963 19.1163 31.3803L20.9581 19.1914C21.5028 15.6416 24.9135 12.6646 29.314 10.7049C33.6887 8.75676 38.8528 7.90382 42.6034 8.47055C42.6091 8.4714 42.6147 8.47223 42.6204 8.47303C42.626 8.47393 42.6317 8.47482 42.6373 8.47567L86.7161 15.136L90.1067 15.6484L133.42 22.193L132.301 29.5989L131.788 32.9895L126.153 70.2869C126.082 70.7552 126.2 71.2325 126.481 71.6137C126.762 71.995 127.183 72.2489 127.652 72.3197L127.658 72.3206C128.124 72.3847 128.596 72.2645 128.975 71.9855C129.353 71.7065 129.607 71.2908 129.684 70.827L129.685 70.8206L135.319 33.5296L135.32 33.5232L135.833 30.1325L137.218 20.9608L137.219 20.9543C137.283 20.4887 137.163 20.0164 136.884 19.6381C136.605 19.2598 136.19 19.0054 135.726 18.9291L135.726 18.929L135.719 18.9281L90.6404 12.1166L87.2497 11.6042L43.171 4.94389C43.1653 4.94304 43.1597 4.94221 43.154 4.94141C43.1484 4.9405 43.1427 4.93961 43.1371 4.93876L43.1343 4.93835C38.5866 4.27785 32.5659 5.25699 27.4999 7.59254C22.4484 9.92136 18.1968 13.6734 17.4433 18.6597L15.9238 28.7161C15.8696 28.8476 15.831 28.9862 15.8094 29.1292L8.96395 74.4326C8.89872 74.576 8.85203 74.7285 8.82603 74.8866L8.82599 74.8866L8.82501 74.893L1.14045 125.75C1.10265 125.982 1.1115 126.219 1.16645 126.448C1.22168 126.678 1.3224 126.894 1.46268 127.084C1.60303 127.275 1.78006 127.435 1.98315 127.555C2.18529 127.675 2.40936 127.754 2.64242 127.786ZM2.64242 127.786C2.64128 127.786 2.64014 127.786 2.639 127.786L2.71375 127.291L2.64578 127.787C2.64466 127.787 2.64354 127.786 2.64242 127.786ZM117.98 136.353C118.447 136.423 118.923 136.304 119.303 136.024C119.684 135.743 119.938 135.322 120.009 134.853L122.511 118.296L122.512 118.29L122.655 117.34L128.66 77.6019C128.731 77.1336 128.612 76.6563 128.331 76.2751C128.05 75.8939 127.629 75.64 127.161 75.5692C126.692 75.4984 126.215 75.6166 125.834 75.8977C125.453 76.1789 125.199 76.5999 125.128 77.0683L119.124 116.806L118.98 117.756L116.478 134.317C116.44 134.549 116.449 134.786 116.504 135.015C116.559 135.244 116.66 135.461 116.8 135.651C116.94 135.841 117.117 136.001 117.32 136.122C117.523 136.242 117.747 136.321 117.98 136.353ZM117.98 136.353C117.979 136.353 117.978 136.353 117.976 136.353L118.051 135.858L117.983 136.353C117.982 136.353 117.981 136.353 117.98 136.353Z" fill="white" stroke="white"/>
<path d="M102.227 130.314L102.093 130.292L102.093 130.288L102.092 130.288C102.091 130.288 102.09 130.288 102.089 130.287L100.25 129.994L100.245 129.994L70.403 125.243C70.4021 125.242 70.4012 125.242 70.4004 125.242L70.4004 125.242L70.3911 125.241L70.0197 125.182L61.454 123.818L61.454 123.818L61.4436 123.816C61.4192 123.813 61.3948 123.81 61.3704 123.808L13.9873 116.282L13.9873 116.281L13.9814 116.281C11.9691 115.986 9.91456 116.238 8.03312 117.01C6.15167 117.782 4.51263 119.046 3.28783 120.67C2.06303 122.294 1.29759 124.217 1.07173 126.238C0.845891 128.259 1.16781 130.303 2.0038 132.157C2.12616 132.43 2.31571 132.668 2.55465 132.847C2.79383 133.027 3.07475 133.143 3.37108 133.185L3.86127 133.254L3.88477 133.099C4.02917 133.072 4.17022 133.027 4.30439 132.964L4.30441 132.964L4.31126 132.96C4.7162 132.763 5.03265 132.421 5.19813 132.002C5.3636 131.583 5.36612 131.117 5.20529 130.696L5.19938 130.681L5.19246 130.666C4.5717 129.316 4.36313 127.814 4.59288 126.347L4.59343 126.343C4.74387 125.333 5.09198 124.363 5.61787 123.488C6.14377 122.613 6.83712 121.85 7.65818 121.243C8.47926 120.636 9.41193 120.197 10.4029 119.951C11.3931 119.706 12.4221 119.658 13.4311 119.81C13.4317 119.81 13.4323 119.81 13.4329 119.81L69.8301 128.768C69.8306 128.768 69.8311 128.768 69.8317 128.768C69.8321 128.769 69.8326 128.769 69.833 128.769C69.838 128.769 69.8431 128.77 69.8481 128.771L99.6853 133.521C99.6921 133.523 99.6988 133.524 99.7056 133.525C99.7059 133.525 99.7061 133.525 99.7064 133.525C99.707 133.525 99.7076 133.525 99.7081 133.525C99.7091 133.525 99.7101 133.525 99.7112 133.525L115.194 136.045C114.122 137.936 113.397 140.006 113.056 142.157L113.054 142.169L113.053 142.18C112.739 144.999 112.824 147.847 113.304 150.64L96.6714 148.127L93.7499 147.686L58.9048 142.42L55.9833 141.979L11.1942 135.211C10.4664 135.097 9.7571 134.885 9.08523 134.583C8.65611 134.385 8.166 134.365 7.72224 134.528C7.27754 134.691 6.9159 135.024 6.71683 135.454L6.71668 135.454L6.71159 135.465C6.52642 135.894 6.51275 136.377 6.67347 136.815C6.8342 137.253 7.15706 137.613 7.57522 137.819L7.58259 137.823L7.59007 137.826C8.56592 138.27 9.59771 138.578 10.6569 138.743L10.6589 138.743L55.4497 145.511L58.3711 145.952L93.2163 151.217L96.1377 151.659L115.227 154.543L115.235 154.544C115.52 154.583 115.81 154.552 116.08 154.455C116.348 154.358 116.589 154.199 116.782 153.991C116.978 153.791 117.123 153.547 117.206 153.279C117.289 153.009 117.305 152.722 117.253 152.444L117.251 152.431L117.248 152.419C116.491 149.246 116.243 145.973 116.514 142.722C116.937 140.182 117.979 137.785 119.549 135.743C119.739 135.504 119.863 135.219 119.909 134.916C119.955 134.612 119.92 134.301 119.807 134.015L119.808 134.015L119.803 134.004C119.685 133.722 119.496 133.475 119.254 133.286L118.947 133.681M102.227 130.314C102.637 130.409 103.002 130.647 103.255 130.986L118.349 133.423C118.567 133.457 118.773 133.545 118.947 133.681M102.227 130.314L118.424 132.929M102.227 130.314L118.424 132.929M118.947 133.681L119.254 133.286C119.013 133.099 118.728 132.976 118.427 132.929M118.947 133.681L118.427 132.929M118.424 132.929C118.425 132.929 118.426 132.929 118.427 132.929M118.424 132.929L118.427 132.929M13.9089 116.775L60.1671 124.123L2.45986 131.952C1.66055 130.18 1.35273 128.226 1.56864 126.294C1.78454 124.361 2.51622 122.523 3.68699 120.971C4.85777 119.419 6.42452 118.211 8.22298 117.472C10.0214 116.734 11.9853 116.493 13.9089 116.775ZM98.5519 132.835L71.1355 128.47L98.5519 132.835Z" fill="white" stroke="white"/>
<path d="M22.3084 121.169L22.3084 121.169C21.8446 121.093 21.4289 120.838 21.1499 120.46C20.871 120.082 20.7507 119.61 20.8149 119.144L20.8154 119.14L26.1627 82.2978C26.14 82.135 26.1395 81.9686 26.1623 81.803L26.1629 81.7985L34.5777 24.5605C34.5617 24.4145 34.5635 24.2659 34.5838 24.118L34.5847 24.112L34.5847 24.112L37.2421 6.41016L37.2422 6.40969C37.313 5.94131 37.5669 5.52037 37.9481 5.23926C38.3292 4.9582 38.8064 4.83985 39.2749 4.91062L22.3084 121.169ZM22.3084 121.169L22.3214 121.171C22.5536 121.203 22.79 121.189 23.0171 121.13C23.244 121.07 23.457 120.967 23.6439 120.825L23.3418 120.427L23.6439 120.825C23.8308 120.683 23.9879 120.506 24.1064 120.304C24.2244 120.102 24.3017 119.879 24.3338 119.647C24.3339 119.646 24.334 119.646 24.3341 119.645L30.2443 78.9249L30.2448 78.9212C30.2663 78.7653 30.2668 78.6086 30.2475 78.4551M22.3084 121.169L30.2475 78.4551M30.2475 78.4551L38.1006 25.0372M30.2475 78.4551L38.1006 25.0372M38.1006 25.0372C38.1505 24.9084 38.1855 24.774 38.2045 24.6366C38.2046 24.6359 38.2047 24.6352 38.2048 24.6345L40.777 6.92364L40.7775 6.91988C40.8414 6.45473 40.7196 5.98298 40.4384 5.60692C40.1572 5.2309 39.7392 4.98075 39.2749 4.91063L38.1006 25.0372Z" fill="white" stroke="white"/>
<path d="M59.5866 136.39L61.2953 136.649L98.5661 142.28L100.275 142.539L113.449 144.529C113.917 144.6 114.394 144.482 114.776 144.201C115.157 143.919 115.411 143.498 115.482 143.03C115.552 142.562 115.434 142.084 115.153 141.703C114.872 141.322 114.451 141.068 113.982 140.997L100.808 139.007L99.0997 138.749L61.8289 133.117L60.1203 132.859L12.6509 125.686C12.1826 125.615 11.7053 125.733 11.3241 126.015L11.6208 126.417L11.3241 126.015C10.9428 126.296 10.6889 126.717 10.6182 127.185C10.5474 127.653 10.6656 128.131 10.9467 128.512C11.2278 128.893 11.6489 129.147 12.1172 129.218L59.5866 136.39Z" fill="white" stroke="white"/>
<path d="M93.5651 34.1876L111.688 36.926C112.157 36.9968 112.634 36.8786 113.015 36.5975C113.396 36.3164 113.65 35.8953 113.721 35.427C113.792 34.9586 113.674 34.4813 113.392 34.1001L113.392 34.1001C113.111 33.7189 112.69 33.465 112.222 33.3942L94.0987 30.6558L90.708 30.1435L53.4107 24.5078C52.9423 24.437 52.4651 24.5552 52.0839 24.8363C51.7027 25.1174 51.4487 25.5385 51.3779 26.0069C51.3072 26.4752 51.4254 26.9525 51.7065 27.3337C51.9876 27.7149 52.4086 27.9688 52.877 28.0396L90.1744 33.6753L93.5651 34.1876Z" fill="white" stroke="white"/>
<path d="M92.15 43.546L110.273 46.2844C110.741 46.3552 111.219 46.237 111.6 45.9559C111.981 45.6748 112.235 45.2537 112.306 44.7854C112.377 44.317 112.258 43.8397 111.977 43.4585L111.977 43.4585C111.696 43.0773 111.275 42.8234 110.807 42.7526L92.6837 40.0142L89.293 39.5019L51.9956 33.8662C51.5273 33.7954 51.05 33.9136 50.6688 34.1947C50.2877 34.4758 50.0337 34.8969 49.9629 35.3653C49.8921 35.8336 50.0104 36.3109 50.2915 36.6921C50.5726 37.0733 50.9936 37.3272 51.462 37.398L88.7594 43.0337L92.15 43.546Z" fill="white" stroke="white"/>
<path d="M82.2902 89.9062L79.9498 105.396C79.8697 105.925 79.5826 106.401 79.1516 106.719C78.7205 107.037 78.1809 107.171 77.6513 107.091L69.6877 105.887C69.1581 105.807 68.6821 105.52 68.3642 105.089C68.0463 104.658 67.9126 104.118 67.9927 103.589L70.3331 88.0994L58.9214 86.3751C58.3918 86.2951 57.9157 86.008 57.5978 85.5769C57.2799 85.1459 57.1463 84.6062 57.2263 84.0766C57.3063 83.5471 57.5934 83.0709 58.0245 82.7531C58.4555 82.4352 58.9952 82.3016 59.5248 82.3816L72.9321 84.4074C73.1956 84.4438 73.4493 84.5324 73.6781 84.6683C73.9074 84.8045 74.1069 84.9852 74.2651 85.1997C74.4233 85.4142 74.537 85.6582 74.5993 85.9174C74.6615 86.1762 74.6713 86.4448 74.6282 86.7074L72.2879 102.196L76.258 102.795L78.5982 87.3072C78.6346 87.0437 78.7233 86.7899 78.8592 86.5611C78.9953 86.3319 79.176 86.1324 79.3905 85.9742C79.605 85.816 79.8491 85.7023 80.1083 85.6399C80.3671 85.5777 80.6356 85.568 80.8982 85.6111L82.2902 89.9062ZM82.2902 89.9062L97.7798 92.2467L97.7797 92.2471L97.7927 92.2482C98.2967 92.291 98.7987 92.1454 99.2015 91.8396C99.6044 91.5337 99.8796 91.0893 99.9738 90.5923L99.9739 90.5924L99.975 90.585L101.178 82.6214C101.258 82.0918 101.125 81.5521 100.807 81.1211C100.489 80.69 100.013 80.4029 99.4833 80.3229L83.9938 77.9824L86.3343 62.493C86.4143 61.9634 86.2807 61.4237 85.9628 60.9927C85.6449 60.5616 85.1688 60.2745 84.6392 60.1945L76.6757 58.9912C76.1461 58.9112 75.6064 59.0448 75.1754 59.3627C74.7443 59.6806 74.4572 60.1567 74.3772 60.6862L72.0367 76.1757L56.5485 73.8354C56.2859 73.7923 56.0173 73.8022 55.7586 73.8644L55.8053 74.0588L55.7586 73.8644C55.4994 73.9267 55.2554 74.0402 55.0408 74.1984C54.8263 74.3567 54.6456 74.5563 54.5095 74.7855C54.3736 75.0143 54.2849 75.268 54.2485 75.5316L53.8863 77.9289C53.8063 78.4585 53.9399 78.9982 54.2578 79.4292C54.5757 79.8603 55.0518 80.1474 55.5813 80.2274C56.1109 80.3074 56.6506 80.1738 57.0816 79.8559C57.5127 79.538 57.7998 79.0619 57.8798 78.5324L57.9478 78.0826L73.4373 80.4231C73.9669 80.5031 74.5066 80.3695 74.9376 80.0516C75.3687 79.7337 75.6558 79.2576 75.7358 78.728L78.0763 63.2384L82.0463 63.8383L79.7058 79.3279C79.6258 79.8575 79.7595 80.3972 80.0773 80.8282C80.3952 81.2592 80.8712 81.5463 81.4008 81.6264L96.8904 83.9669L96.2905 87.9369L82.138 85.7985C82.1238 85.7962 82.1095 85.794 82.0952 85.792L82.2902 89.9062Z" fill="white" stroke="white" stroke-width="0.4"/>
</g>
</svg>
