<svg width="140" height="114" viewBox="0 0 140 114" fill="none" xmlns="http://www.w3.org/2000/svg">
<g opacity="0.3">
<path fill-rule="evenodd" clip-rule="evenodd" d="M115.836 1C114.889 1 114.122 1.76708 114.122 2.71332C114.122 3.65956 114.889 4.42663 115.836 4.42663C125.579 4.42663 134.923 8.29722 141.813 15.1869C148.703 22.0765 152.573 31.421 152.573 41.1644C152.573 51.3172 148.391 58.3533 142.229 65.7106L103.333 65.6833L103.316 65.6833L102.641 65.6897C102.048 65.3888 101.392 65.2259 100.723 65.2169C100.711 65.2167 100.7 65.2167 100.689 65.2167C99.7916 65.2223 98.9192 65.5139 98.1988 66.0494C97.4799 66.5838 96.9499 67.3332 96.6854 68.1889L96.6839 68.194L86.9408 99.3106L73.5931 55.2876L73.5916 55.2827C73.341 54.4428 72.8349 53.7019 72.1437 53.1629C71.4511 52.6228 70.6072 52.3124 69.7298 52.275L69.7283 52.2749C68.8595 52.2386 67.9999 52.4664 67.2631 52.9285C66.5996 53.3446 66.0638 53.9329 65.7113 54.6285L55.7943 66.9846H13.3919C7.99576 59.6348 4.42835 49.9827 4.42663 41.2339C4.49419 32.2802 7.83125 23.6596 13.8101 16.9941C19.7904 10.3271 28.0014 6.07581 36.8975 5.0404C45.7937 4.00499 54.7615 6.25687 62.1131 11.3722C69.4648 16.4876 74.6932 24.1136 76.8144 32.815C77.0018 33.5837 77.6911 34.1241 78.4823 34.1226C79.2735 34.121 79.9607 33.5779 80.1451 32.8085C81.5766 26.8346 84.4791 21.3134 88.5886 16.7473C92.6981 12.1812 97.8841 8.71518 103.675 6.66449C104.567 6.34861 105.034 5.36947 104.718 4.47751C104.402 3.58555 103.423 3.11855 102.531 3.43442C96.2016 5.67584 90.5333 9.46426 86.0416 14.455C82.7881 18.07 80.2268 22.2327 78.4672 26.7345C75.5755 19.4298 70.5855 13.0929 64.0703 8.5595C56.0325 2.96673 46.2278 0.504697 36.5014 1.63674C26.775 2.76878 17.7977 7.41682 11.2593 14.7061C4.72091 21.9954 1.07224 31.4231 1.00005 41.2149L1 41.2276C1 51.1068 5.10809 61.8033 11.1735 69.7383C11.2853 69.8845 11.4183 70.0099 11.5665 70.1114L79.2059 140.86C80.6196 142.339 83.0055 142.258 84.3151 140.686L145.973 66.6965L145.904 66.6388C151.757 59.4078 156 51.8536 156 41.1644C156 30.5122 151.768 20.2962 144.236 12.7639C136.704 5.23161 126.488 1 115.836 1ZM139.48 69.1353L103.331 69.1099L102.198 69.1206C101.842 69.1239 101.493 69.0161 101.201 68.8121C101.052 68.7079 100.876 68.6494 100.694 68.6436C100.531 68.6479 100.374 68.7023 100.243 68.7995C100.108 68.8999 100.008 69.0408 99.9589 69.2018L99.9564 69.2098L88.5495 105.64C88.3248 106.358 87.6586 106.845 86.9067 106.842C86.1548 106.838 85.493 106.345 85.2748 105.626L70.3111 56.2727L70.3084 56.2636C70.2615 56.1057 70.1665 55.9664 70.0365 55.8651C69.9067 55.7638 69.7486 55.7056 69.5842 55.6985C69.4076 55.6913 69.2331 55.7377 69.0836 55.8315C68.9337 55.9255 68.8158 56.0628 68.7454 56.2252C68.6846 56.3656 68.6053 56.4972 68.5095 56.6165L57.9522 69.7703C57.627 70.1755 57.1356 70.4112 56.616 70.4112H16.5938L81.6827 138.492L139.48 69.1353Z" fill="white"/>
<path d="M141.813 15.1869L142.52 14.4798V14.4798L141.813 15.1869ZM142.229 65.7106L142.228 66.7106C142.524 66.7108 142.805 66.5797 142.996 66.3527L142.229 65.7106ZM103.333 65.6833L103.334 64.6833L103.329 64.6833L103.333 65.6833ZM103.316 65.6833L103.312 64.6833L103.306 64.6834L103.316 65.6833ZM102.641 65.6897L102.188 66.5813C102.331 66.654 102.49 66.6911 102.65 66.6896L102.641 65.6897ZM100.723 65.2169L100.736 64.2169L100.736 64.2169L100.723 65.2169ZM100.689 65.2167L100.683 64.2168H100.683L100.689 65.2167ZM98.1988 66.0494L98.7954 66.852L98.1988 66.0494ZM96.6854 68.1889L95.73 67.8935L95.7298 67.8945L96.6854 68.1889ZM96.6839 68.194L97.6382 68.4928L97.6395 68.4884L96.6839 68.194ZM86.9408 99.3106L85.9838 99.6007C86.1112 100.021 86.4974 100.309 86.9363 100.311C87.3751 100.313 87.764 100.028 87.8951 99.6094L86.9408 99.3106ZM73.5931 55.2876L72.6345 55.5725L72.6361 55.5778L73.5931 55.2876ZM73.5916 55.2827L74.5502 54.9978L74.5499 54.9967L73.5916 55.2827ZM72.1437 53.1629L72.7586 52.3743L72.1437 53.1629ZM69.7298 52.275L69.7724 51.2759L69.7705 51.2758L69.7298 52.275ZM69.7283 52.2749L69.6865 53.274L69.6875 53.2741L69.7283 52.2749ZM67.2631 52.9285L66.7318 52.0813L66.7318 52.0813L67.2631 52.9285ZM65.7113 54.6285L66.4912 55.2544C66.5345 55.2005 66.572 55.1422 66.6033 55.0805L65.7113 54.6285ZM55.7943 66.9846V67.9846C56.0975 67.9846 56.3843 67.847 56.5741 67.6105L55.7943 66.9846ZM13.3919 66.9846L12.5858 67.5764C12.7742 67.833 13.0735 67.9846 13.3919 67.9846V66.9846ZM4.42663 41.2339L3.42663 41.2263L3.42663 41.2341L4.42663 41.2339ZM13.8101 16.9941L13.0657 16.3264L13.8101 16.9941ZM36.8975 5.0404L37.0131 6.03369L36.8975 5.0404ZM62.1131 11.3722L61.542 12.1931V12.1931L62.1131 11.3722ZM76.8144 32.815L75.8428 33.0519V33.0519L76.8144 32.815ZM78.4823 34.1226L78.4803 33.1226L78.4823 34.1226ZM80.1451 32.8085L79.1726 32.5755V32.5755L80.1451 32.8085ZM88.5886 16.7473L89.3319 17.4163V17.4163L88.5886 16.7473ZM103.675 6.66449L103.341 5.72185V5.72186L103.675 6.66449ZM104.718 4.47751L105.66 4.14369V4.14369L104.718 4.47751ZM102.531 3.43442L102.197 2.49179V2.49179L102.531 3.43442ZM86.0416 14.455L86.7849 15.124V15.124L86.0416 14.455ZM78.4672 26.7345L77.5374 27.1025C77.6887 27.4847 78.0584 27.7354 78.4694 27.7345C78.8804 27.7336 79.249 27.4813 79.3986 27.0985L78.4672 26.7345ZM64.0703 8.5595L64.6414 7.73866H64.6414L64.0703 8.5595ZM36.5014 1.63674L36.617 2.63004L36.5014 1.63674ZM11.2593 14.7061L10.5149 14.0384L11.2593 14.7061ZM1.00005 41.2149L6.6936e-05 41.2076L5.33462e-05 41.2112L1.00005 41.2149ZM1 41.2276L0 41.2239V41.2276H1ZM11.1735 69.7383L11.968 69.1311L11.968 69.1311L11.1735 69.7383ZM11.5665 70.1114L12.2893 69.4203C12.2415 69.3703 12.1886 69.3254 12.1316 69.2863L11.5665 70.1114ZM79.2059 140.86L78.4831 141.551H78.4831L79.2059 140.86ZM84.3151 140.686L85.0834 141.326L84.3151 140.686ZM145.973 66.6965L146.741 67.3367C147.095 66.9124 147.038 66.2819 146.613 65.9283L145.973 66.6965ZM145.904 66.6388L145.127 66.0097C144.783 66.4346 144.844 67.057 145.264 67.407L145.904 66.6388ZM144.236 12.7639L143.529 13.471L144.236 12.7639ZM139.48 69.1353L140.249 69.7755C140.497 69.4775 140.551 69.0628 140.386 68.7114C140.222 68.3601 139.869 68.1355 139.481 68.1353L139.48 69.1353ZM103.331 69.1099L103.331 68.1099L103.321 68.11L103.331 69.1099ZM102.198 69.1206L102.208 70.1206H102.208L102.198 69.1206ZM101.201 68.8121L101.774 67.9922L101.774 67.9922L101.201 68.8121ZM100.694 68.6436L100.726 67.6441C100.706 67.6435 100.687 67.6434 100.667 67.6439L100.694 68.6436ZM100.243 68.7995L99.6465 67.9969H99.6465L100.243 68.7995ZM99.9589 69.2018L100.914 69.4979L100.915 69.4959L99.9589 69.2018ZM99.9564 69.2098L100.911 69.5086L100.912 69.5059L99.9564 69.2098ZM88.5495 105.64L87.5952 105.342L88.5495 105.64ZM86.9067 106.842L86.9022 107.842H86.9022L86.9067 106.842ZM85.2748 105.626L86.2318 105.335L85.2748 105.626ZM70.3111 56.2727L69.3534 56.5605L69.3542 56.5629L70.3111 56.2727ZM70.3084 56.2636L69.3498 56.5484L69.3507 56.5513L70.3084 56.2636ZM70.0365 55.8651L70.6515 55.0765L70.6515 55.0765L70.0365 55.8651ZM69.5842 55.6985L69.6273 54.6994L69.6247 54.6993L69.5842 55.6985ZM69.0836 55.8315L68.5523 54.9843L68.5523 54.9843L69.0836 55.8315ZM68.7454 56.2252L67.8278 55.8277L67.8278 55.8277L68.7454 56.2252ZM68.5095 56.6165L67.7296 55.9906V55.9906L68.5095 56.6165ZM57.9522 69.7703L57.1724 69.1444L57.9522 69.7703ZM16.5938 70.4112V69.4112C16.1934 69.4112 15.8317 69.65 15.6743 70.0182C15.5169 70.3863 15.5943 70.8128 15.871 71.1022L16.5938 70.4112ZM81.6827 138.492L80.9599 139.183C81.1568 139.389 81.4321 139.502 81.7168 139.492C82.0015 139.482 82.2686 139.351 82.451 139.133L81.6827 138.492ZM115.122 2.71332C115.122 2.31936 115.442 2 115.836 2V0C114.337 0 113.122 1.2148 113.122 2.71332H115.122ZM115.836 3.42663C115.442 3.42663 115.122 3.10728 115.122 2.71332H113.122C113.122 4.21184 114.337 5.42663 115.836 5.42663V3.42663ZM142.52 14.4798C135.443 7.40258 125.844 3.42663 115.836 3.42663V5.42663C125.314 5.42663 134.404 9.19186 141.106 15.894L142.52 14.4798ZM153.573 41.1644C153.573 31.1557 149.597 21.557 142.52 14.4798L141.106 15.894C147.808 22.5961 151.573 31.6862 151.573 41.1644H153.573ZM142.996 66.3527C149.225 58.9151 153.573 51.6557 153.573 41.1644H151.573C151.573 50.9788 147.557 57.7914 141.462 65.0685L142.996 66.3527ZM103.332 66.6833L142.228 66.7106L142.23 64.7106L103.334 64.6833L103.332 66.6833ZM103.32 66.6833L103.337 66.6833L103.329 64.6833L103.312 64.6834L103.32 66.6833ZM102.65 66.6896L103.325 66.6833L103.306 64.6834L102.631 64.6897L102.65 66.6896ZM100.709 66.2168C101.225 66.2237 101.731 66.3493 102.188 66.5813L103.094 64.7981C102.365 64.4282 101.559 64.228 100.736 64.2169L100.709 66.2168ZM100.695 66.2167C100.7 66.2167 100.705 66.2167 100.71 66.2168L100.736 64.2169C100.718 64.2167 100.7 64.2166 100.683 64.2168L100.695 66.2167ZM98.7954 66.852C99.345 66.4434 100.011 66.221 100.695 66.2167L100.683 64.2168C99.5727 64.2236 98.4935 64.5844 97.6022 65.2469L98.7954 66.852ZM97.6408 68.4842C97.8426 67.8314 98.247 67.2597 98.7954 66.852L97.6022 65.2469C96.7129 65.908 96.0572 66.8351 95.73 67.8935L97.6408 68.4842ZM97.6395 68.4884L97.6411 68.4833L95.7298 67.8945L95.7282 67.8996L97.6395 68.4884ZM87.8951 99.6094L97.6382 68.4928L95.7295 67.8952L85.9865 99.0117L87.8951 99.6094ZM72.6361 55.5778L85.9838 99.6007L87.8978 99.0204L74.5501 54.9975L72.6361 55.5778ZM72.6331 55.5676L72.6345 55.5725L74.5517 55.0027L74.5502 54.9978L72.6331 55.5676ZM71.5287 53.9515C72.0561 54.3627 72.4422 54.9279 72.6334 55.5687L74.5499 54.9967C74.2398 53.9577 73.6137 53.0411 72.7586 52.3743L71.5287 53.9515ZM69.6871 53.2741C70.3566 53.3026 71.0004 53.5394 71.5287 53.9515L72.7586 52.3743C71.9019 51.7062 70.8579 51.3222 69.7724 51.2759L69.6871 53.2741ZM69.6875 53.2741L69.689 53.2741L69.7705 51.2758L69.769 51.2757L69.6875 53.2741ZM67.7944 53.7757C68.3599 53.421 69.0196 53.2462 69.6865 53.274L69.77 51.2758C68.6993 51.231 67.64 51.5118 66.7318 52.0813L67.7944 53.7757ZM66.6033 55.0805C66.8739 54.5466 67.2852 54.095 67.7944 53.7757L66.7318 52.0813C65.9141 52.5941 65.2537 53.3192 64.8193 54.1765L66.6033 55.0805ZM56.5741 67.6105L66.4912 55.2544L64.9314 54.0025L55.0144 66.3586L56.5741 67.6105ZM13.3919 67.9846H55.7943V65.9846H13.3919V67.9846ZM3.42663 41.2341C3.4284 50.2274 7.08394 60.0826 12.5858 67.5764L14.198 66.3927C8.90759 59.1871 5.4283 49.7379 5.42663 41.2337L3.42663 41.2341ZM13.0657 16.3264C6.92401 23.1734 3.49606 32.0288 3.42666 41.2263L5.42661 41.2414C5.49232 32.5316 8.7385 24.1458 14.5545 17.6619L13.0657 16.3264ZM36.7819 4.0471C27.6435 5.11072 19.2089 9.47778 13.0657 16.3264L14.5545 17.6619C20.372 11.1764 28.3593 7.04091 37.0131 6.03369L36.7819 4.0471ZM62.6843 10.5514C55.1324 5.2967 45.9204 2.98349 36.7819 4.0471L37.0131 6.03369C45.667 5.02648 54.3906 7.21703 61.542 12.1931L62.6843 10.5514ZM77.7859 32.5782C75.607 23.6398 70.2362 15.8061 62.6843 10.5514L61.542 12.1931C68.6934 17.1691 73.7794 24.5875 75.8428 33.0519L77.7859 32.5782ZM78.4803 33.1226C78.1509 33.1232 77.8639 32.8982 77.7859 32.5782L75.8428 33.0519C76.1396 34.2692 77.2313 35.125 78.4843 35.1226L78.4803 33.1226ZM79.1726 32.5755C79.0959 32.8958 78.8097 33.1219 78.4803 33.1226L78.4843 35.1226C79.7372 35.1201 80.8256 34.26 81.1176 33.0415L79.1726 32.5755ZM87.8453 16.0784C83.6243 20.7684 80.643 26.4394 79.1726 32.5755L81.1176 33.0416C82.5102 27.2298 85.334 21.8584 89.3319 17.4163L87.8453 16.0784ZM103.341 5.72186C97.3931 7.82821 92.0663 11.3883 87.8453 16.0784L89.3319 17.4163C93.3298 12.9741 98.3751 9.60216 104.009 7.60713L103.341 5.72186ZM103.775 4.81134C103.907 5.18269 103.712 5.59034 103.341 5.72185L104.009 7.60713C105.421 7.10689 106.161 5.55625 105.66 4.14369L103.775 4.81134ZM102.865 4.37706C103.236 4.24555 103.644 4.43998 103.775 4.81134L105.66 4.14369C105.16 2.73113 103.61 1.99155 102.197 2.49179L102.865 4.37706ZM86.7849 15.124C91.1651 10.2572 96.6926 6.56282 102.865 4.37706L102.197 2.49179C95.7106 4.78887 89.9016 8.67136 85.2983 13.7861L86.7849 15.124ZM79.3986 27.0985C81.1145 22.7085 83.6122 18.6492 86.7849 15.124L85.2983 13.7861C81.964 17.4908 79.3391 21.7569 77.5359 26.3704L79.3986 27.0985ZM63.4991 9.38034C69.852 13.8008 74.7177 19.9798 77.5374 27.1025L79.397 26.3664C76.4332 18.8797 71.3189 12.385 64.6414 7.73866L63.4991 9.38034ZM36.617 2.63004C46.1011 1.52619 55.6616 3.9269 63.4991 9.38035L64.6414 7.73866C56.4035 2.00657 46.3545 -0.516798 36.3858 0.643446L36.617 2.63004ZM12.0037 15.3738C18.3793 8.26613 27.1329 3.73388 36.617 2.63004L36.3858 0.643446C26.4171 1.80369 17.2162 6.56751 10.5149 14.0384L12.0037 15.3738ZM2.00002 41.2223C2.07042 31.6744 5.6282 22.4815 12.0037 15.3738L10.5149 14.0384C3.81363 21.5092 0.0740663 31.1718 7.37309e-05 41.2076L2.00002 41.2223ZM1.99999 41.2312L2.00004 41.2186L5.33462e-05 41.2112L6.79493e-06 41.2239L1.99999 41.2312ZM11.968 69.1311C6.01555 61.3438 2 50.856 2 41.2276H0C0 51.3576 4.20064 62.2628 10.3791 70.3456L11.968 69.1311ZM12.1316 69.2863C12.0699 69.2441 12.0146 69.192 11.968 69.1311L10.379 70.3456C10.5559 70.5771 10.7667 70.7756 11.0014 70.9364L12.1316 69.2863ZM79.9287 140.169L12.2893 69.4203L10.8437 70.8024L78.4831 141.551L79.9287 140.169ZM83.5469 140.046C82.6195 141.159 80.9298 141.217 79.9287 140.169L78.4831 141.551C80.3093 143.462 83.3916 143.357 85.0834 141.326L83.5469 140.046ZM145.205 66.0563L83.5469 140.046L85.0834 141.326L146.741 67.3367L145.205 66.0563ZM145.264 67.407L145.333 67.4647L146.613 65.9283L146.544 65.8706L145.264 67.407ZM155 41.1644C155 51.5362 150.903 58.873 145.127 66.0097L146.681 67.2679C152.61 59.9426 157 52.1711 157 41.1644H155ZM143.529 13.471C150.874 20.8157 155 30.7774 155 41.1644H157C157 30.2469 152.663 19.7766 144.943 12.0568L143.529 13.471ZM115.836 2C126.223 2 136.184 6.12625 143.529 13.471L144.943 12.0568C137.223 4.33696 126.753 0 115.836 0V2ZM139.481 68.1353L103.331 68.1099L103.33 70.1099L139.48 70.1353L139.481 68.1353ZM103.321 68.11L102.189 68.1206L102.208 70.1206L103.34 70.1099L103.321 68.11ZM102.189 68.1206C102.04 68.122 101.895 68.0771 101.774 67.9922L100.629 69.632C101.091 69.9551 101.643 70.1258 102.208 70.1206L102.189 68.1206ZM101.774 67.9922C101.465 67.7769 101.101 67.6561 100.726 67.6441L100.662 69.6431C100.65 69.6427 100.639 69.6389 100.629 69.632L101.774 67.9922ZM100.667 67.6439C100.299 67.6538 99.9425 67.7769 99.6465 67.9969L100.84 69.602C100.805 69.6278 100.763 69.6421 100.721 69.6432L100.667 67.6439ZM99.6465 67.9969C99.3407 68.2243 99.1153 68.5433 99.0032 68.9076L100.915 69.4959C100.902 69.5383 100.875 69.5754 100.84 69.602L99.6465 67.9969ZM99.0038 68.9056L99.0013 68.9137L100.912 69.5059L100.914 69.4979L99.0038 68.9056ZM99.0021 68.911L87.5952 105.342L89.5038 105.939L100.911 69.5086L99.0021 68.911ZM87.5952 105.342C87.5016 105.64 87.2243 105.843 86.9112 105.842L86.9022 107.842C88.0929 107.847 89.148 107.076 89.5038 105.939L87.5952 105.342ZM86.9112 105.842C86.5982 105.84 86.3227 105.635 86.2318 105.335L84.3179 105.916C84.6634 107.055 85.7114 107.836 86.9022 107.842L86.9112 105.842ZM86.2318 105.335L71.2681 55.9826L69.3542 56.5629L84.3179 105.916L86.2318 105.335ZM71.2688 55.985L71.2661 55.9758L69.3507 56.5513L69.3534 56.5605L71.2688 55.985ZM71.267 55.9787C71.1607 55.6213 70.9456 55.3059 70.6515 55.0765L69.4216 56.6536C69.3873 56.6269 69.3622 56.5901 69.3498 56.5484L71.267 55.9787ZM70.6515 55.0765C70.3576 54.8474 69.9997 54.7155 69.6273 54.6994L69.541 56.6976C69.4976 56.6957 69.4558 56.6803 69.4216 56.6536L70.6515 55.0765ZM69.6247 54.6993C69.2467 54.684 68.8728 54.7833 68.5523 54.9843L69.6149 56.6787C69.5934 56.6922 69.5686 56.6987 69.5436 56.6977L69.6247 54.6993ZM68.5523 54.9843C68.2312 55.1857 67.9785 55.4798 67.8278 55.8277L69.663 56.6227C69.653 56.6458 69.6363 56.6653 69.6149 56.6787L68.5523 54.9843ZM67.8278 55.8277C67.8025 55.8861 67.7695 55.9409 67.7296 55.9906L69.2894 57.2425C69.441 57.0535 69.5667 56.845 69.6631 56.6226L67.8278 55.8277ZM67.7296 55.9906L57.1724 69.1444L58.7321 70.3962L69.2894 57.2425L67.7296 55.9906ZM57.1724 69.1444C57.037 69.313 56.8324 69.4112 56.616 69.4112V71.4112C57.4388 71.4112 58.2171 71.0379 58.7321 70.3962L57.1724 69.1444ZM56.616 69.4112H16.5938V71.4112H56.616V69.4112ZM15.871 71.1022L80.9599 139.183L82.4056 137.801L17.3166 69.7201L15.871 71.1022ZM82.451 139.133L140.249 69.7755L138.712 68.4951L80.9145 137.852L82.451 139.133Z" fill="white"/>
</g>
</svg>
