<svg width="121" height="113" viewBox="0 0 121 113" fill="none" xmlns="http://www.w3.org/2000/svg">
<g opacity="0.3">
<path d="M3.14402 27.7873C3.13473 17.2509 11.6687 8.70193 22.2051 8.69265C32.7415 8.68336 41.2905 17.2173 41.2998 27.7537L41.3539 89.1494C41.3632 99.6858 32.8293 108.235 22.2929 108.244C11.7564 108.253 3.20744 99.7194 3.19815 89.183L3.14402 27.7873Z" stroke="white" stroke-width="5"/>
<path d="M42.8438 58.2609L2.6624 58.2901" stroke="white" stroke-width="5"/>
<path d="M58.5972 37.1296C54.0226 27.6381 58.0085 16.2352 67.5 11.6606C76.9915 7.08588 88.3944 11.0718 92.969 20.5633L119.626 75.8702C124.2 85.3617 120.214 96.7646 110.723 101.339C101.231 105.914 89.8285 101.928 85.2538 92.4366L58.5972 37.1296Z" stroke="white" stroke-width="5"/>
<path d="M107.582 47.3876L71.3829 64.8278" stroke="white" stroke-width="5"/>
</g>
</svg>
