<svg width="20" height="20" viewBox="0 0 20 20" fill="none" xmlns="http://www.w3.org/2000/svg">
<path fill-rule="evenodd" clip-rule="evenodd" d="M9.94812 2.86475C7.81849 2.86475 6.10791 4.57533 6.10791 6.70495C6.10791 8.8352 7.81835 10.5459 9.94812 10.5459C12.0779 10.5459 13.7883 8.8352 13.7883 6.70495C13.7883 4.57533 12.0777 2.86475 9.94812 2.86475ZM9.94812 4.11475C11.3874 4.11475 12.5383 5.26569 12.5383 6.70495C12.5383 8.14489 11.3875 9.29593 9.94812 9.29593C8.50876 9.29593 7.35791 8.14489 7.35791 6.70495C7.35791 5.26569 8.50885 4.11475 9.94812 4.11475ZM5.24168 3.64964C5.58686 3.64964 5.86668 3.92947 5.86668 4.27464C5.86668 4.61982 5.58686 4.89964 5.24168 4.89964C4.25137 4.89964 3.44821 5.70246 3.44821 6.69235C3.44821 7.68224 4.25137 8.48506 5.24168 8.48506C5.58686 8.48506 5.86668 8.76488 5.86668 9.11006C5.86668 9.45524 5.58686 9.73506 5.24168 9.73506C3.56114 9.73506 2.19821 8.37272 2.19821 6.69235C2.19821 5.01198 3.56114 3.64964 5.24168 3.64964ZM17.7059 6.69235C17.7059 5.01198 16.343 3.64964 14.6624 3.64964C14.3172 3.64964 14.0374 3.92947 14.0374 4.27464C14.0374 4.61982 14.3172 4.89964 14.6624 4.89964C15.6527 4.89964 16.4559 5.70246 16.4559 6.69235C16.4559 7.68224 15.6527 8.48506 14.6624 8.48506C14.3172 8.48506 14.0374 8.76488 14.0374 9.11006C14.0374 9.45524 14.3172 9.73506 14.6624 9.73506C16.343 9.73506 17.7059 8.37272 17.7059 6.69235ZM17.0798 11.296C16.6797 11.2057 16.252 11.1439 15.8172 11.1139C15.4729 11.0902 15.1744 11.3501 15.1507 11.6945C15.1269 12.0388 15.3868 12.3372 15.7312 12.361C16.1033 12.3866 16.468 12.4393 16.8225 12.5191C17.3739 12.6273 17.7334 12.8066 17.8227 12.9936C17.8898 13.1347 17.8898 13.3007 17.822 13.4435C17.734 13.6286 17.3775 13.807 16.8339 13.9188C16.4958 13.9883 16.278 14.3188 16.3476 14.6569C16.4171 14.995 16.7476 15.2127 17.0857 15.1432C17.9841 14.9584 18.6423 14.629 18.9511 13.9798C19.18 13.4972 19.18 12.9374 18.9512 12.456C18.6402 11.8044 17.9707 11.4704 17.0798 11.296ZM4.75335 11.6945C4.7296 11.3501 4.43119 11.0902 4.08683 11.1139C3.652 11.1439 3.22436 11.2057 2.80705 11.2996L2.63501 11.336C1.84533 11.5164 1.24287 11.848 0.95369 12.4559C0.723811 12.9369 0.723811 13.4977 0.953932 13.9803C1.26137 14.6288 1.91951 14.9583 2.81839 15.1432C3.15649 15.2127 3.48694 14.995 3.55646 14.6569C3.62599 14.3188 3.40826 13.9883 3.07016 13.9188C2.52675 13.8071 2.17061 13.6287 2.08284 13.4436C2.01446 13.3002 2.01446 13.1352 2.082 12.9939C2.17115 12.8065 2.53029 12.6272 3.06435 12.5227L3.34204 12.4658C3.61886 12.4146 3.89375 12.3802 4.17283 12.361C4.51719 12.3372 4.7771 12.0388 4.75335 11.6945ZM4.30592 14.3206C4.30592 12.3323 6.36254 11.6331 9.94815 11.6331L10.2022 11.6343C13.6379 11.6666 15.5904 12.3674 15.5904 14.3061C15.5904 16.1992 13.7241 16.924 10.4498 16.9888L9.94815 16.9936C6.35432 16.9936 4.30592 16.3067 4.30592 14.3206ZM14.3404 14.3061C14.3404 13.3807 12.8566 12.8831 9.94815 12.8831C7.04256 12.8831 5.55592 13.3885 5.55592 14.3206C5.55592 15.2462 7.03924 15.7436 9.94815 15.7436C12.8529 15.7436 14.3404 15.2377 14.3404 14.3061Z" fill="#D42335"/>
</svg>
