<svg width="21" height="20" viewBox="0 0 21 20" fill="none" xmlns="http://www.w3.org/2000/svg">
<path fill-rule="evenodd" clip-rule="evenodd" d="M14.6606 3.81814C14.6606 2.63009 15.6267 1.66699 16.8184 1.66699C18.0101 1.66699 18.9762 2.63009 18.9762 3.81814C18.9762 5.00618 18.0101 5.96929 16.8184 5.96929C15.6267 5.96929 14.6606 5.00618 14.6606 3.81814ZM17.7649 3.81815C17.7649 3.29699 17.3412 2.87452 16.8184 2.87452C16.2956 2.87452 15.8718 3.29699 15.8718 3.81815C15.8718 4.3393 16.2956 4.76178 16.8184 4.76178C17.3412 4.76178 17.7649 4.3393 17.7649 3.81815ZM13.5827 7.9505C13.7875 7.68691 14.168 7.6388 14.4324 7.84303C14.6727 8.02869 14.7345 8.35899 14.5898 8.61554L14.5402 8.69008L12.1749 11.7333C11.9878 11.974 11.6545 12.0349 11.3968 11.8884L11.3221 11.8383L9.04579 10.056L7.0022 12.7043C6.81677 12.9446 6.48566 13.0072 6.22782 12.8639L6.15289 12.8146C5.91189 12.6298 5.84903 12.2997 5.99283 12.0427L6.0422 11.968L8.45919 8.83634C8.64593 8.59438 8.98009 8.53279 9.23833 8.67945L9.3133 8.72972L11.5903 10.5132L13.5827 7.9505ZM13.3292 2.94865C13.3292 2.61521 13.0581 2.3449 12.7236 2.3449H6.85481L6.66567 2.34805C4.03891 2.43602 2.30957 4.35918 2.30957 7.08976V13.5962L2.31247 13.7904C2.39343 16.4901 4.16532 18.3337 6.85481 18.3337H13.8027L13.9919 18.3305C16.6196 18.2428 18.348 16.3254 18.348 13.5962V7.92977L18.3424 7.84785C18.3023 7.55315 18.0489 7.32601 17.7423 7.32601C17.4079 7.32601 17.1367 7.59633 17.1367 7.92977V13.5962L17.1334 13.7835C17.0602 15.8227 15.7866 17.1261 13.8027 17.1261H6.85481L6.67491 17.1226C4.71876 17.0448 3.52083 15.6912 3.52083 13.5962V7.08976L3.52417 6.90219C3.59747 4.86097 4.87263 3.55241 6.85481 3.55241H12.7236L12.8058 3.5469C13.1014 3.50692 13.3292 3.25431 13.3292 2.94865Z" fill="#444749"/>
</svg>
