<svg width="80" height="80" viewBox="0 0 80 80" fill="none" xmlns="http://www.w3.org/2000/svg">
<path d="M0 40C0 17.9086 17.9086 0 40 0C62.0914 0 80 17.9086 80 40C80 62.0914 62.0914 80 40 80C17.9086 80 0 62.0914 0 40Z" fill="white"/>
<ellipse cx="41.1667" cy="26" rx="8.16667" ry="7" fill="#F2BDC2"/>
<path fill-rule="evenodd" clip-rule="evenodd" d="M59.5084 41.845L61.522 41.5133C63.2064 41.2358 64.5 39.6157 64.5 37.6668C64.5 35.7179 63.2064 34.0978 61.522 33.8204L59.5084 33.4887L58.7722 31.3799C56.1636 23.9077 48.8845 18.2224 40 18.2224C31.1155 18.2224 23.8364 23.9077 21.2278 31.3799L20.4916 33.4887L18.478 33.8204C16.7936 34.0978 15.5 35.7179 15.5 37.6668C15.5 39.6157 16.7936 41.2358 18.478 41.5133L20.4916 41.845L21.2278 43.9537C23.8364 51.4259 31.1155 57.1113 40 57.1113C48.8845 57.1113 56.1636 51.4259 58.7722 43.9537L59.5084 41.845ZM17.9647 45.3601C21.1439 54.4668 29.809 61.0002 40 61.0002C50.191 61.0002 58.8561 54.4668 62.0353 45.3601C65.4104 44.8042 68 41.5715 68 37.6668C68 33.7621 65.4104 30.5295 62.0353 29.9735C58.8561 20.8668 50.191 14.3335 40 14.3335C29.809 14.3335 21.1439 20.8668 17.9647 29.9735C14.5896 30.5295 12 33.7621 12 37.6668C12 41.5715 14.5896 44.8042 17.9647 45.3601Z" fill="#D42335"/>
<path d="M33.0007 40.0003C33.0007 41.289 31.956 42.3337 30.6673 42.3337C29.3787 42.3337 28.334 41.289 28.334 40.0003C28.334 38.7117 29.3787 37.667 30.6673 37.667C31.956 37.667 33.0007 38.7117 33.0007 40.0003Z" fill="#D42335"/>
<path d="M51.6667 40.0003C51.6667 41.289 50.622 42.3337 49.3333 42.3337C48.0447 42.3337 47 41.289 47 40.0003C47 38.7117 48.0447 37.667 49.3333 37.667C50.622 37.667 51.6667 38.7117 51.6667 40.0003Z" fill="#D42335"/>
<mask id="mask0" mask-type="alpha" maskUnits="userSpaceOnUse" x="33" y="37" width="14" height="15">
<path d="M47 44.667C47 48.533 43.866 51.667 40 51.667C36.134 51.667 33 48.533 33 44.667C33 40.801 36.134 37.667 40 37.667C43.866 37.667 47 40.801 47 44.667Z" fill="#BC1520"/>
</mask>
<g mask="url(#mask0)">
<path d="M33 51.667H47V45.667H33V51.667Z" fill="#D42335"/>
</g>
<path fill-rule="evenodd" clip-rule="evenodd" d="M35.9424 24.1865C36.9439 24.4309 37.5577 25.4409 37.3133 26.4425C37.1086 27.2811 37.1425 28.4701 37.7166 29.3748C38.2103 30.1529 39.369 31.1332 42.3329 31.1332C43.3639 31.1332 44.1996 31.969 44.1996 32.9999C44.1996 34.0308 43.3639 34.8666 42.3329 34.8666C38.4638 34.8666 35.9212 33.5135 34.5643 31.375C33.2877 29.3631 33.3216 27.052 33.6864 25.5574C33.9308 24.5558 34.9409 23.9421 35.9424 24.1865Z" fill="#D42335"/>
<path fill-rule="evenodd" clip-rule="evenodd" d="M45.2207 24.1865C46.2223 24.4309 46.8361 25.4409 46.5916 26.4425C46.4819 26.8922 46.5158 27.4979 46.7814 27.9165C46.9667 28.2085 47.5085 28.7999 49.3336 28.7999C50.3645 28.7999 51.2003 29.6356 51.2003 30.6666C51.2003 31.6975 50.3645 32.5332 49.3336 32.5332C46.6033 32.5332 44.6776 31.5691 43.6291 29.9167C42.661 28.3909 42.6949 26.6631 42.9647 25.5574C43.2092 24.5558 44.2192 23.9421 45.2207 24.1865Z" fill="#D42335"/>
</svg>
