<svg width="40" height="40" viewBox="0 0 40 40" fill="none" xmlns="http://www.w3.org/2000/svg">
<path d="M0 20C0 8.95431 8.95431 0 20 0C31.0457 0 40 8.95431 40 20C40 31.0457 31.0457 40 20 40C8.95431 40 0 31.0457 0 20Z" fill="white"/>
<path fill-rule="evenodd" clip-rule="evenodd" d="M19.3723 11.3951V21.6192L17.7377 19.9791L17.6537 19.9064C17.3606 19.6879 16.9438 19.7112 16.677 19.977C16.3835 20.2693 16.3826 20.7441 16.6749 21.0376L19.5909 23.9656L19.5931 23.9676C19.6178 23.9921 19.6441 24.015 19.672 24.0359L19.6751 24.0386C19.9691 24.2575 20.3872 24.2332 20.6537 23.9656L23.5697 21.0376L23.6421 20.9534C23.8594 20.6593 23.8343 20.2427 23.5675 19.977L23.4832 19.9045C23.1892 19.6873 22.7726 19.7123 22.5069 19.9791L20.8723 21.6198V11.3951L20.8654 11.2933C20.8158 10.9272 20.502 10.6451 20.1223 10.6451C19.7081 10.6451 19.3723 10.9809 19.3723 11.3951ZM25.9054 29.1172C28.2529 29.0084 30.1221 27.0714 30.1221 24.697V19.813L30.1172 19.6042C30.0083 17.2511 28.0675 15.378 25.6881 15.378H24.7551L24.6533 15.3848C24.2872 15.4345 24.0051 15.7483 24.0051 16.128C24.0051 16.5422 24.3409 16.878 24.7551 16.878H25.6881L25.8605 16.883C27.4011 16.9722 28.6221 18.2492 28.6221 19.813V24.697L28.6171 24.8689C28.5282 26.4046 27.2551 27.622 25.6971 27.622H14.5571L14.3846 27.617C12.8441 27.5277 11.6221 26.2499 11.6221 24.687V19.802L11.627 19.6302C11.716 18.0956 12.9897 16.878 14.5471 16.878H15.4891L15.5908 16.8711C15.9569 16.8215 16.2391 16.5077 16.2391 16.128C16.2391 15.7138 15.9033 15.378 15.4891 15.378H14.5471L14.3327 15.3831C11.9889 15.4949 10.1221 17.4307 10.1221 19.802V24.687L10.1269 24.8957C10.2359 27.248 12.1778 29.122 14.5571 29.122H25.6971L25.9054 29.1172Z" fill="#15191C"/>
</svg>
