<svg width="40" height="40" viewBox="0 0 40 40" fill="none" xmlns="http://www.w3.org/2000/svg">
<path d="M0 20C0 8.95431 8.95431 0 20 0C31.0457 0 40 8.95431 40 20C40 31.0457 31.0457 40 20 40C8.95431 40 0 31.0457 0 20Z" fill="#EBEFF4"/>
<path fill-rule="evenodd" clip-rule="evenodd" d="M19.3723 11.395V21.6192L17.7377 19.9791L17.6537 19.9063C17.3606 19.6878 16.9438 19.7112 16.677 19.9769C16.3835 20.2692 16.3826 20.7441 16.6749 21.0376L19.5909 23.9656L19.5931 23.9675C19.6178 23.9921 19.6441 24.0149 19.672 24.0358L19.6751 24.0385C19.9691 24.2575 20.3872 24.2331 20.6537 23.9656L23.5697 21.0376L23.6421 20.9533C23.8594 20.6592 23.8343 20.2426 23.5675 19.9769L23.4832 19.9045C23.1892 19.6872 22.7726 19.7123 22.5069 19.9791L20.8723 21.6197V11.395L20.8654 11.2932C20.8158 10.9272 20.502 10.645 20.1223 10.645C19.7081 10.645 19.3723 10.9808 19.3723 11.395ZM25.9054 29.1171C28.2529 29.0084 30.1221 27.0713 30.1221 24.6969V19.8129L30.1172 19.6041C30.0083 17.2511 28.0675 15.3779 25.6881 15.3779H24.7551L24.6533 15.3848C24.2872 15.4344 24.0051 15.7482 24.0051 16.1279C24.0051 16.5421 24.3409 16.8779 24.7551 16.8779H25.6881L25.8605 16.8829C27.4011 16.9721 28.6221 18.2492 28.6221 19.8129V24.6969L28.6171 24.8688C28.5282 26.4046 27.2551 27.6219 25.6971 27.6219H14.5571L14.3846 27.6169C12.8441 27.5277 11.6221 26.2498 11.6221 24.6869V19.8019L11.627 19.6301C11.716 18.0955 12.9897 16.8779 14.5471 16.8779H15.4891L15.5908 16.8711C15.9569 16.8214 16.2391 16.5076 16.2391 16.1279C16.2391 15.7137 15.9033 15.3779 15.4891 15.3779H14.5471L14.3327 15.383C11.9889 15.4948 10.1221 17.4307 10.1221 19.8019V24.6869L10.1269 24.8957C10.2359 27.248 12.1778 29.1219 14.5571 29.1219H25.6971L25.9054 29.1171Z" fill="#3B5A90"/>
</svg>
