<svg width="20" height="20" viewBox="0 0 20 20" fill="none" xmlns="http://www.w3.org/2000/svg">
<path fill-rule="evenodd" clip-rule="evenodd" d="M12.4881 1.66663H7.51199C4.92433 1.66663 3.33337 2.91603 3.33337 5.36191V16.9424C3.33711 17.1774 3.39205 17.3984 3.4939 17.5978L3.57194 17.7265L3.65363 17.8312C4.07958 18.3307 4.75938 18.4686 5.32039 18.1697L9.97837 15.5529L14.6553 18.1642C14.864 18.2742 15.0805 18.3297 15.3007 18.3333C15.6698 18.3334 16.0149 18.1868 16.2693 17.926C16.5238 17.6651 16.6667 17.3113 16.6667 16.9424V5.21467C16.6667 2.86248 15.0402 1.66663 12.4881 1.66663ZM7.51201 2.87308H12.4881C14.4584 2.87308 15.49 3.63153 15.49 5.21467V16.9424C15.49 16.9913 15.4711 17.0383 15.4373 17.0729C15.4036 17.1075 15.3578 17.1269 15.3101 17.1269C15.2797 17.1263 15.2406 17.1163 15.2053 17.0977L10.5363 14.4911C10.1876 14.298 9.76945 14.298 9.42242 14.4902L4.7664 17.1054C4.69577 17.1429 4.59483 17.1184 4.54105 17.0432L4.50983 16.9914C4.51584 17 4.51476 16.9896 4.51289 16.9718C4.51172 16.9606 4.51025 16.9465 4.51002 16.9324L4.5101 5.36191C4.5101 3.66311 5.5161 2.87308 7.51201 2.87308ZM13.4283 7.53371C13.4283 7.20056 13.1649 6.93048 12.8399 6.93048H7.11705L7.03721 6.93599C6.75004 6.97593 6.52869 7.22832 6.52869 7.53371C6.52869 7.86686 6.79211 8.13694 7.11705 8.13694H12.8399L12.9198 8.13143C13.2069 8.09149 13.4283 7.8391 13.4283 7.53371Z" fill="#200E32"/>
</svg>
