<svg width="21" height="20" viewBox="0 0 21 20" fill="none" xmlns="http://www.w3.org/2000/svg">
<path fill-rule="evenodd" clip-rule="evenodd" d="M7.3208 1.66699H4.78935C3.41865 1.66699 2.30957 2.7857 2.30957 4.16326V6.71668C2.30957 8.09368 3.41888 9.21295 4.78935 9.21295H7.3208C8.69128 9.21295 9.80059 8.09368 9.80059 6.71668V4.16326C9.80059 2.7857 8.69151 1.66699 7.3208 1.66699ZM4.78937 2.8298H7.32082C8.04707 2.8298 8.63781 3.42566 8.63781 4.16327V6.7167C8.63781 7.45382 8.04676 8.05017 7.32082 8.05017H4.78937C4.06342 8.05017 3.47237 7.45382 3.47237 6.7167V4.16327C3.47237 3.42566 4.06311 2.8298 4.78937 2.8298ZM16.4973 1.66699H13.965C12.5943 1.66699 11.4852 2.7857 11.4852 4.16326V6.71668C11.4852 8.09368 12.5945 9.21295 13.965 9.21295H16.4973C17.8671 9.21295 18.9762 8.09352 18.9762 6.71668V4.16326C18.9762 2.78586 17.8673 1.66699 16.4973 1.66699ZM13.965 2.8298H16.4973C17.2228 2.8298 17.8135 3.42575 17.8135 4.16327V6.7167C17.8135 7.45373 17.2225 8.05017 16.4973 8.05017H13.965C13.2391 8.05017 12.648 7.45382 12.648 6.7167V4.16327C12.648 3.42566 13.2388 2.8298 13.965 2.8298ZM4.78935 10.7877H7.3208C8.69167 10.7877 9.80059 11.9066 9.80059 13.2848V15.8374C9.80059 17.215 8.69151 18.3337 7.3208 18.3337H4.78935C3.41865 18.3337 2.30957 17.215 2.30957 15.8374V13.2848C2.30957 11.9066 3.41848 10.7877 4.78935 10.7877ZM7.32082 11.9505H4.78937C4.06303 11.9505 3.47237 12.5465 3.47237 13.2848V15.8374C3.47237 16.575 4.06311 17.1709 4.78937 17.1709H7.32082C8.04707 17.1709 8.63781 16.575 8.63781 15.8374V13.2848C8.63781 12.5465 8.04716 11.9505 7.32082 11.9505ZM16.4973 10.7877H13.965C12.5941 10.7877 11.4852 11.9066 11.4852 13.2848V15.8374C11.4852 17.215 12.5943 18.3337 13.965 18.3337H16.4973C17.8673 18.3337 18.9762 17.2148 18.9762 15.8374V13.2848C18.9762 11.9067 17.8675 10.7877 16.4973 10.7877ZM13.965 11.9505H16.4973C17.2229 11.9505 17.8135 12.5465 17.8135 13.2848V15.8374C17.8135 16.5749 17.2228 17.1709 16.4973 17.1709H13.965C13.2388 17.1709 12.648 16.575 12.648 15.8374V13.2848C12.648 12.5465 13.2387 11.9505 13.965 11.9505Z" fill="#444749"/>
</svg>
