<svg width="20" height="20" viewBox="0 0 20 20" fill="none" xmlns="http://www.w3.org/2000/svg">
<path fill-rule="evenodd" clip-rule="evenodd" d="M10.0483 1.66706C7.12196 1.6553 4.40462 3.1727 2.88383 5.66694C1.36284 8.16151 1.26073 11.2691 2.61471 13.8578L2.76789 14.1564C2.82646 14.2662 2.83775 14.3846 2.80382 14.4941C2.58503 15.0722 2.3928 15.6966 2.23941 16.331L2.22313 16.4676C2.22313 17.1055 2.56346 17.5437 3.23892 17.5288L3.35139 17.5152C3.96498 17.3797 4.56925 17.2052 5.1605 16.9926C5.23888 16.9728 5.36725 16.9805 5.48309 17.0279L6.05187 17.3497C6.05315 17.3537 6.05411 17.3567 6.06006 17.3601L6.09823 17.3735C9.16078 18.9838 12.901 18.5396 15.4998 16.2568C18.0989 13.9736 19.0166 10.3253 17.8063 7.08675C16.5961 3.84855 13.5096 1.6925 10.0483 1.66706ZM9.80627 2.83273L10.0403 2.82906C13.0193 2.85172 15.6757 4.70738 16.7171 7.49383C17.7584 10.28 16.9689 13.4186 14.7324 15.3832L14.5489 15.539C12.3856 17.3152 9.38188 17.6732 6.86061 16.4559L6.62083 16.3357L6.63111 16.3371L6.61594 16.3329L6.26401 16.131C6.13729 16.0593 6.03677 16.0051 5.95575 15.9661C5.56978 15.807 5.17798 15.7835 4.80948 15.885L4.46063 16.0048C4.23008 16.0809 4.00313 16.1497 3.77731 16.212L3.44809 16.298L3.36967 16.6043C3.51186 16.0162 3.69007 15.4374 3.90328 14.8711C4.04047 14.4321 3.99852 13.9923 3.79799 13.6171L3.64722 13.323C2.48026 11.0918 2.5681 8.41846 3.87667 6.27228C5.14452 4.19288 7.37915 2.90217 9.80627 2.83273ZM5.39549 10.0004C5.39549 9.47519 5.82154 9.04984 6.34663 9.04984C6.87171 9.04984 7.29776 9.47519 7.29776 10.0004C7.29776 10.5255 6.87171 10.9509 6.34663 10.9509C5.82154 10.9509 5.39549 10.5255 5.39549 10.0004ZM9.09287 10.0004C9.09287 9.47519 9.51892 9.04984 10.044 9.04984C10.5691 9.04984 10.9951 9.47519 10.9951 10.0004C10.9951 10.5255 10.5691 10.9509 10.044 10.9509C9.51892 10.9509 9.09287 10.5255 9.09287 10.0004ZM13.7415 9.04984C13.2164 9.04984 12.7903 9.47519 12.7903 10.0004C12.7903 10.5255 13.2164 10.9509 13.7415 10.9509C14.2665 10.9509 14.6926 10.5255 14.6926 10.0004C14.6926 9.47519 14.2665 9.04984 13.7415 9.04984Z" fill="#15191C"/>
</svg>
