<svg width="20" height="20" viewBox="0 0 20 20" fill="none" xmlns="http://www.w3.org/2000/svg">
<path fill-rule="evenodd" clip-rule="evenodd" d="M6.78145 18.3332C6.43811 18.3332 6.11228 18.3065 5.80561 18.254L5.62395 18.2198C3.64811 17.809 2.49978 16.2957 2.49978 13.9923V6.00734C2.49978 5.729 2.51645 5.46234 2.54978 5.20734C2.84061 2.96984 4.37811 1.6665 6.78145 1.6665H13.2189C15.8823 1.6665 17.4748 3.2665 17.4998 5.94317V6.00734V13.9923C17.4998 16.7065 15.9031 18.3332 13.2189 18.3332H6.78145ZM6.78144 2.88067C4.73478 2.88067 3.69728 3.93317 3.69728 6.00734V13.9923C3.69728 16.0665 4.73478 17.119 6.78144 17.119H13.2114C15.2573 17.119 16.2881 16.0665 16.2881 13.9923V6.00734C16.2881 3.93317 15.2573 2.88067 13.2114 2.88067H6.78144ZM13.5881 13.5282C13.5881 13.1948 13.3223 12.9248 12.994 12.9248H6.98478C6.65645 12.9248 6.38978 13.1948 6.38978 13.5282C6.38978 13.8615 6.65645 14.1315 6.98478 14.1315H12.994C13.3223 14.1315 13.5881 13.8615 13.5881 13.5282ZM12.994 9.39234C13.2231 9.36734 13.4473 9.47734 13.5698 9.67484C13.6923 9.874 13.6923 10.1257 13.5698 10.3248C13.4473 10.5223 13.2231 10.6323 12.994 10.6073H6.98482C6.67982 10.5723 6.44898 10.3115 6.44898 9.99984C6.44898 9.68817 6.67982 9.4265 6.98482 9.39234H12.994ZM9.81393 6.47567C9.81393 6.164 9.5831 5.90234 9.2781 5.86817H6.99227C6.68643 5.90234 6.4556 6.164 6.4556 6.47567C6.4556 6.7865 6.68643 7.04817 6.99227 7.08234H9.2781C9.5831 7.04817 9.81393 6.7865 9.81393 6.47567Z" fill="#15191C"/>
</svg>
