<svg width="21" height="20" viewBox="0 0 21 20" fill="none" xmlns="http://www.w3.org/2000/svg">
<path fill-rule="evenodd" clip-rule="evenodd" d="M12.8146 1.67674C12.7787 1.67034 12.7417 1.66699 12.704 1.66699C12.6663 1.66699 12.6293 1.67034 12.5934 1.67674H7.37957C5.30682 1.67674 3.55957 3.35827 3.55957 5.40924V14.3567C3.55957 16.5214 5.22694 18.2209 7.37957 18.2209H14.0362C16.0826 18.2209 17.7696 16.4359 17.7696 14.3567V6.69841C17.7696 6.53704 17.7072 6.38193 17.5954 6.26553L13.3737 1.86886C13.2559 1.74612 13.0931 1.67674 12.9229 1.67674H12.8146ZM12.079 2.92607L7.37957 2.92674C5.98668 2.92674 4.80957 4.05957 4.80957 5.40924V14.3567C4.80957 15.8363 5.9227 16.9709 7.37957 16.9709H14.0362C15.376 16.9709 16.5196 15.7608 16.5196 14.3567L16.5193 7.48623L15.7889 7.48872C15.511 7.48838 15.1949 7.48779 14.8435 7.48699C13.3682 7.48387 12.1646 6.32822 12.0834 4.87316L12.079 4.71616V2.92607ZM15.8351 6.23686L14.8462 6.23699C14.0076 6.23522 13.329 5.55496 13.329 4.71616V3.62695L15.8351 6.23686ZM10.3432 7.24249C10.6596 7.24249 10.9211 7.47762 10.9624 7.78268L10.9682 7.86749V11.8307L12.2658 10.5285C12.5093 10.2839 12.9051 10.2831 13.1497 10.5266C13.372 10.748 13.3929 11.0952 13.2119 11.3403L13.1515 11.4105L10.7867 13.7853L10.7857 13.7863C10.5636 14.0091 10.215 14.0295 9.97005 13.8471L9.96438 13.8422C9.94356 13.8263 9.92377 13.8091 9.90513 13.7908L9.89987 13.7863L7.53487 11.4104C7.29135 11.1658 7.29225 10.7701 7.53689 10.5265C7.75928 10.3052 8.10655 10.2858 8.35081 10.4679L8.42077 10.5286L9.71815 11.8326V7.86749C9.71815 7.52231 9.99798 7.24249 10.3432 7.24249Z" fill="#444749"/>
</svg>
