<svg width="16" height="16" viewBox="0 0 16 16" fill="none" xmlns="http://www.w3.org/2000/svg">
<g clip-path="url(#clip0)">
<path fill-rule="evenodd" clip-rule="evenodd" d="M8.19986 1.3335C7.81326 1.3335 7.49986 1.6469 7.49986 2.0335V8.36561L6.74665 7.60986L6.67958 7.55172L6.67366 7.5473C6.3999 7.3433 6.01105 7.36491 5.7619 7.61304C5.48798 7.88584 5.48707 8.32906 5.75987 8.60299L7.70906 10.5602L7.71131 10.5621C7.73095 10.5813 7.75171 10.5993 7.77349 10.616L7.77635 10.6185L7.78229 10.6229C8.05688 10.8274 8.447 10.8049 8.69585 10.555L10.645 8.59779L10.7029 8.53046L10.7073 8.52452C10.9102 8.24992 10.887 7.86117 10.6378 7.61304L10.6326 7.60787L10.5653 7.54998L10.5594 7.54559C10.2848 7.34272 9.896 7.36595 9.64787 7.61507L8.89986 8.36586V2.02678L8.89439 1.94547L8.89348 1.93876C8.8471 1.5969 8.55441 1.3335 8.19986 1.3335ZM5.11106 4.48876H4.48306L4.3354 4.49216L4.33063 4.49239C2.662 4.572 1.33306 5.94996 1.33306 7.6381L1.33301 10.8948L1.33628 11.0386L1.33649 11.0432C1.4141 12.7176 2.79621 14.0514 4.48973 14.0514L11.9164 14.0515L12.0599 14.0482L12.0645 14.048C13.7358 13.9706 15.0664 12.5917 15.0664 10.9014L15.0664 7.64543L15.0632 7.50159L15.063 7.49696C14.9854 5.82207 13.6041 4.48876 11.9104 4.48876H11.2817L11.2004 4.49423L11.1937 4.49514C10.8518 4.54152 10.5884 4.83422 10.5884 5.18876C10.5884 5.57536 10.9018 5.88876 11.2884 5.88876H11.9075L12.0166 5.89191C12.9371 5.94669 13.6664 6.7104 13.6664 7.64543V10.8985L13.6633 11.0073C13.6086 11.9246 12.8476 12.6514 11.9164 12.6514H4.49264L4.38352 12.6483C3.46298 12.5935 2.73306 11.8292 2.73306 10.8948V7.64099L2.7362 7.53234C2.79082 6.6158 3.5523 5.88876 4.48306 5.88876H5.11778L5.19909 5.88329L5.20579 5.88238C5.54766 5.83601 5.81106 5.54331 5.81106 5.18876C5.81106 4.80216 5.49766 4.48876 5.11106 4.48876Z" fill="#3B5A90"/>
<path d="M7.49986 8.36561L7.3582 8.50679L7.69986 8.84961V8.36561H7.49986ZM6.74665 7.60986L6.88831 7.46867L6.88317 7.46351L6.87766 7.45873L6.74665 7.60986ZM6.67958 7.55172L6.81059 7.40059L6.80501 7.39576L6.79909 7.39135L6.67958 7.55172ZM6.67366 7.5473L6.79317 7.38693L6.79317 7.38693L6.67366 7.5473ZM5.7619 7.61304L5.90303 7.75475L5.7619 7.61304ZM5.75987 8.60299L5.90158 8.46186L5.75987 8.60299ZM7.70906 10.5602L7.56735 10.7013L7.57252 10.7065L7.57806 10.7113L7.70906 10.5602ZM7.71131 10.5621L7.85115 10.4187L7.84231 10.411L7.71131 10.5621ZM7.77349 10.616L7.90469 10.4646L7.89538 10.4575L7.77349 10.616ZM7.77635 10.6185L7.64537 10.7696L7.65097 10.7745L7.65691 10.7789L7.77635 10.6185ZM7.78229 10.6229L7.90173 10.4625H7.90173L7.78229 10.6229ZM8.69585 10.555L8.83756 10.6961H8.83756L8.69585 10.555ZM10.645 8.59779L10.7867 8.73892L10.7919 8.73373L10.7967 8.72818L10.645 8.59779ZM10.7029 8.53046L10.8546 8.66084L10.8594 8.65525L10.8638 8.64931L10.7029 8.53046ZM10.7073 8.52452L10.8682 8.64337L10.8682 8.64337L10.7073 8.52452ZM10.6378 7.61304L10.7789 7.47133L10.7789 7.47133L10.6378 7.61304ZM10.6326 7.60787L10.7738 7.46616L10.7686 7.46099L10.763 7.45621L10.6326 7.60787ZM10.5653 7.54998L10.6957 7.39832L10.6901 7.39351L10.6841 7.38913L10.5653 7.54998ZM10.5594 7.54559L10.6782 7.38474L10.6782 7.38473L10.5594 7.54559ZM9.64787 7.61507L9.78955 7.75623L9.78957 7.75621L9.64787 7.61507ZM8.89986 8.36586H8.69986V8.84997L9.04154 8.50702L8.89986 8.36586ZM8.89986 2.02678H9.10031L9.09941 2.01335L8.89986 2.02678ZM8.89439 1.94547L9.0944 1.93202L9.09257 1.91856L8.89439 1.94547ZM8.89348 1.93876L8.6953 1.96565L8.6953 1.96567L8.89348 1.93876ZM4.48306 4.48876V4.28871L4.47846 4.28882L4.48306 4.48876ZM4.3354 4.49216L4.33079 4.29216L4.32587 4.29239L4.3354 4.49216ZM4.33063 4.49239L4.3211 4.29262L4.3211 4.29262L4.33063 4.49239ZM1.33306 7.6381L1.53306 7.6381V7.6381H1.33306ZM1.33301 10.8948L1.13296 10.8948L1.13306 10.8993L1.33301 10.8948ZM1.33628 11.0386L1.13628 11.0431L1.13649 11.0478L1.33628 11.0386ZM1.33649 11.0432L1.13671 11.0525L1.33649 11.0432ZM4.48973 14.0514L4.48973 13.8514H4.48973V14.0514ZM11.9164 14.0515L11.9164 14.2515L11.9209 14.2514L11.9164 14.0515ZM12.0599 14.0482L12.0645 14.2482L12.0692 14.248L12.0599 14.0482ZM12.0645 14.048L12.0553 13.8482L12.0552 13.8482L12.0645 14.048ZM15.0664 10.9014L14.8664 10.9014V10.9014H15.0664ZM15.0664 7.64543L15.2665 7.64543L15.2664 7.64088L15.0664 7.64543ZM15.0632 7.50159L15.2632 7.49704L15.263 7.49233L15.0632 7.50159ZM15.063 7.49696L14.8632 7.50621V7.50622L15.063 7.49696ZM11.2817 4.48876V4.28831L11.2682 4.28921L11.2817 4.48876ZM11.2004 4.49423L11.1869 4.29423L11.1735 4.29605L11.2004 4.49423ZM11.1937 4.49514L11.1668 4.29696L11.1668 4.29696L11.1937 4.49514ZM11.9075 5.88876L11.9133 5.68876H11.9075V5.88876ZM12.0166 5.89191L12.0285 5.69217L12.0224 5.692L12.0166 5.89191ZM13.6664 10.8985L13.8664 10.9043V10.8985H13.6664ZM13.6633 11.0073L13.863 11.0192L13.8632 11.0131L13.6633 11.0073ZM4.49264 12.6514L4.48687 12.8514H4.49264V12.6514ZM4.38352 12.6483L4.37162 12.848L4.37774 12.8482L4.38352 12.6483ZM2.73306 7.64099L2.53306 7.6352V7.64099H2.73306ZM2.7362 7.53234L2.53646 7.52044L2.53629 7.52656L2.7362 7.53234ZM5.11778 5.88876V6.08922L5.13121 6.08831L5.11778 5.88876ZM5.19909 5.88329L5.21254 6.0833L5.22597 6.08148L5.19909 5.88329ZM5.20579 5.88238L5.23268 6.08057L5.23268 6.08057L5.20579 5.88238ZM7.69986 2.0335C7.69986 1.75735 7.92372 1.5335 8.19986 1.5335V1.1335C7.70281 1.1335 7.29986 1.53644 7.29986 2.0335H7.69986ZM7.69986 8.36561V2.0335H7.29986V8.36561H7.69986ZM6.60499 7.75104L7.3582 8.50679L7.64152 8.22443L6.88831 7.46867L6.60499 7.75104ZM6.54858 7.70284L6.61565 7.76098L6.87766 7.45873L6.81059 7.40059L6.54858 7.70284ZM6.55416 7.70767L6.56008 7.71209L6.79909 7.39135L6.79317 7.38693L6.55416 7.70767ZM5.90303 7.75475C6.08084 7.57767 6.35864 7.56198 6.55416 7.70768L6.79317 7.38693C6.44116 7.12463 5.94127 7.15214 5.62077 7.47133L5.90303 7.75475ZM5.90158 8.46186C5.70672 8.26619 5.70737 7.94961 5.90303 7.75475L5.62077 7.47133C5.26858 7.82208 5.26741 8.39192 5.61816 8.74412L5.90158 8.46186ZM7.85077 10.4191L5.90158 8.46186L5.61816 8.74412L7.56735 10.7013L7.85077 10.4191ZM7.84231 10.411L7.84005 10.4091L7.57806 10.7113L7.58032 10.7133L7.84231 10.411ZM7.89538 10.4575C7.87981 10.4455 7.86495 10.4326 7.85091 10.4189L7.57172 10.7054C7.59694 10.73 7.6236 10.7531 7.65159 10.7746L7.89538 10.4575ZM7.90734 10.4674L7.90447 10.4649L7.6425 10.7672L7.64537 10.7696L7.90734 10.4674ZM7.90173 10.4625L7.89579 10.4581L7.65691 10.7789L7.66285 10.7833L7.90173 10.4625ZM8.55414 10.4139C8.37655 10.5922 8.09784 10.6085 7.90173 10.4625L7.66285 10.7833C8.01593 11.0462 8.51745 11.0175 8.83756 10.6961L8.55414 10.4139ZM10.5033 8.45666L8.55414 10.4139L8.83756 10.6961L10.7867 8.73892L10.5033 8.45666ZM10.5512 8.40008L10.4934 8.46741L10.7967 8.72818L10.8546 8.66084L10.5512 8.40008ZM10.5464 8.40567L10.5421 8.41161L10.8638 8.64931L10.8682 8.64337L10.5464 8.40567ZM10.4967 7.75475C10.6745 7.93183 10.6913 8.20956 10.5464 8.40568L10.8682 8.64337C11.129 8.29028 11.0994 7.79051 10.7789 7.47133L10.4967 7.75475ZM10.4915 7.74958L10.4967 7.75475L10.7789 7.47133L10.7738 7.46616L10.4915 7.74958ZM10.4349 7.70164L10.5022 7.75953L10.763 7.45621L10.6957 7.39832L10.4349 7.70164ZM10.4405 7.70645L10.4464 7.71084L10.6841 7.38913L10.6782 7.38474L10.4405 7.70645ZM9.78957 7.75621C9.96666 7.57841 10.2444 7.56157 10.4405 7.70645L10.6782 7.38473C10.3251 7.12387 9.82534 7.15348 9.50617 7.47393L9.78957 7.75621ZM9.04154 8.50702L9.78955 7.75623L9.50619 7.47391L8.75818 8.2247L9.04154 8.50702ZM8.69986 2.02678V8.36586H9.09986V2.02678H8.69986ZM8.69484 1.95889L8.70031 2.0402L9.09941 2.01335L9.09394 1.93205L8.69484 1.95889ZM8.6953 1.96567L8.69621 1.97238L9.09257 1.91856L9.09166 1.91185L8.6953 1.96567ZM8.19986 1.5335C8.4529 1.5335 8.66218 1.72151 8.6953 1.96565L9.09167 1.91188C9.03203 1.47229 8.65592 1.1335 8.19986 1.1335V1.5335ZM4.48306 4.68876H5.11106V4.28876H4.48306V4.68876ZM4.34 4.69211L4.48767 4.68871L4.47846 4.28882L4.33079 4.29222L4.34 4.69211ZM4.34015 4.69216L4.34492 4.69194L4.32587 4.29239L4.3211 4.29262L4.34015 4.69216ZM1.53306 7.6381C1.53306 6.05729 2.77759 4.76671 4.34016 4.69216L4.3211 4.29262C2.54642 4.37729 1.13306 5.84263 1.13306 7.6381H1.53306ZM1.53301 10.8948L1.53306 7.6381L1.13306 7.63809L1.13301 10.8948L1.53301 10.8948ZM1.53623 11.034L1.53296 10.8902L1.13306 10.8993L1.13633 11.0431L1.53623 11.034ZM1.53628 11.0339L1.53606 11.0293L1.13649 11.0478L1.13671 11.0525L1.53628 11.0339ZM4.48973 13.8514C2.90358 13.8514 1.60896 12.6021 1.53628 11.0339L1.13671 11.0525C1.21924 12.8331 2.68885 14.2514 4.48973 14.2514V13.8514ZM11.9164 13.8515L4.48973 13.8514L4.48973 14.2514L11.9164 14.2515L11.9164 13.8515ZM12.0554 13.8483L11.9118 13.8515L11.9209 14.2514L12.0645 14.2482L12.0554 13.8483ZM12.0552 13.8482L12.0506 13.8484L12.0692 14.248L12.0738 14.2478L12.0552 13.8482ZM14.8664 10.9014C14.8664 12.4843 13.6203 13.7757 12.0553 13.8482L12.0738 14.2478C13.8512 14.1654 15.2664 12.6991 15.2664 10.9014H14.8664ZM14.8664 7.64543L14.8664 10.9014L15.2664 10.9014L15.2664 7.64543L14.8664 7.64543ZM14.8632 7.50613L14.8665 7.64997L15.2664 7.64088L15.2631 7.49704L14.8632 7.50613ZM14.8632 7.50622L14.8634 7.51085L15.263 7.49233L15.2627 7.4877L14.8632 7.50622ZM11.9104 4.68876C13.4967 4.68876 14.7905 5.93753 14.8632 7.50621L15.2627 7.48771C15.1803 5.70661 13.7115 4.28876 11.9104 4.28876V4.68876ZM11.2817 4.68876H11.9104V4.28876H11.2817V4.68876ZM11.2138 4.69378L11.2951 4.68831L11.2682 4.28921L11.1869 4.29468L11.2138 4.69378ZM11.2205 4.69333L11.2272 4.69242L11.1735 4.29605L11.1668 4.29696L11.2205 4.69333ZM10.7884 5.18876C10.7884 4.93572 10.9764 4.72645 11.2205 4.69333L11.1668 4.29696C10.7272 4.35659 10.3884 4.73271 10.3884 5.18876H10.7884ZM11.2884 5.68876C11.0123 5.68876 10.7884 5.46491 10.7884 5.18876H10.3884C10.3884 5.68582 10.7913 6.08876 11.2884 6.08876V5.68876ZM11.9075 5.68876H11.2884V6.08876H11.9075V5.68876ZM12.0224 5.692L11.9133 5.68885L11.9017 6.08868L12.0108 6.09183L12.0224 5.692ZM13.8664 7.64543C13.8664 6.60401 13.0541 5.7533 12.0285 5.69227L12.0047 6.09156C12.8201 6.14008 13.4664 6.8168 13.4664 7.64543H13.8664ZM13.8664 10.8985V7.64543H13.4664V10.8985H13.8664ZM13.8632 11.0131L13.8663 10.9043L13.4665 10.8927L13.4633 11.0015L13.8632 11.0131ZM11.9164 12.8514C12.954 12.8514 13.802 12.0415 13.8629 11.0192L13.4636 10.9954C13.4153 11.8077 12.7411 12.4514 11.9164 12.4514V12.8514ZM4.49264 12.8514H11.9164V12.4514H4.49264V12.8514ZM4.37774 12.8482L4.48687 12.8513L4.49842 12.4515L4.38929 12.4484L4.37774 12.8482ZM2.53306 10.8948C2.53306 11.9356 3.34606 12.7868 4.37163 12.8479L4.39541 12.4486C3.5799 12.4001 2.93306 11.7227 2.93306 10.8948H2.53306ZM2.53306 7.64099V10.8948H2.93306V7.64099H2.53306ZM2.53629 7.52656L2.53314 7.63521L2.93298 7.64677L2.93612 7.53812L2.53629 7.52656ZM4.48306 5.68876C3.4459 5.68876 2.59744 6.49882 2.53656 7.52044L2.93585 7.54424C2.98421 6.73278 3.6587 6.08876 4.48306 6.08876V5.68876ZM5.11778 5.68876H4.48306V6.08876H5.11778V5.68876ZM5.18566 5.68374L5.10436 5.68921L5.13121 6.08831L5.21251 6.08284L5.18566 5.68374ZM5.17891 5.6842L5.1722 5.68511L5.22597 6.08148L5.23268 6.08057L5.17891 5.6842ZM5.61106 5.18876C5.61106 5.4418 5.42305 5.65108 5.17891 5.6842L5.23268 6.08057C5.67227 6.02093 6.01106 5.64482 6.01106 5.18876H5.61106ZM5.11106 4.68876C5.3872 4.68876 5.61106 4.91262 5.61106 5.18876H6.01106C6.01106 4.69171 5.60812 4.28876 5.11106 4.28876V4.68876Z" fill="#3B5A90"/>
</g>
<defs>
<clipPath id="clip0">
<rect width="16" height="16" fill="white"/>
</clipPath>
</defs>
</svg>
