<svg width="14" height="14" viewBox="0 0 14 14" fill="none" xmlns="http://www.w3.org/2000/svg">
<path fill-rule="evenodd" clip-rule="evenodd" d="M10.8996 2.33472C10.1043 1.55509 8.81572 1.55509 8.02038 2.33472L2.36756 7.87588C2.02198 8.21463 1.82149 8.67208 1.80864 9.1524L1.75018 11.4512C1.74221 11.7646 1.99829 12.0166 2.30915 12.0166H4.63331C5.13779 12.0166 5.6219 11.8205 5.97953 11.47L11.6546 5.90697C12.4519 5.12544 12.4519 3.85638 11.6546 3.07484L10.8996 2.33472ZM8.80865 3.1172C9.16786 2.76509 9.75213 2.76509 10.1113 3.1172L10.8664 3.85732C11.2236 4.20752 11.2236 4.7743 10.8664 5.1245L10.5503 5.43436L8.49731 3.42239L8.80865 3.1172ZM3.15583 8.65836L7.70405 4.19998L9.75701 6.21195L5.19401 10.6848L5.13744 10.7356C4.99698 10.8498 4.81898 10.9135 4.63331 10.9135L2.88237 10.9133L2.92657 9.18067C2.93183 8.98531 3.01368 8.7977 3.15583 8.65836ZM12.0409 10.9136H8.02732L7.96364 10.9178L7.95789 10.9185C7.68726 10.9545 7.47393 11.1829 7.47393 11.4651C7.47393 11.773 7.72758 12.0167 8.03308 12.0167H12.0466L12.1103 12.0125L12.116 12.0117C12.3867 11.9757 12.6 11.7473 12.6 11.4651C12.6 11.1572 12.3464 10.9136 12.0409 10.9136Z" fill="#8A8C8D"/>
<path fill-rule="evenodd" clip-rule="evenodd" d="M10.8179 2.418C10.0679 1.68284 8.85199 1.68284 8.10202 2.418L2.44919 7.95916C2.12504 8.27691 1.93729 8.70566 1.92524 9.1554L1.86678 11.4541C1.86054 11.6994 2.06133 11.8999 2.30912 11.8999H4.63328C5.1076 11.8999 5.56228 11.7156 5.89783 11.3866L11.5729 5.82363C12.3236 5.08783 12.3236 3.89392 11.5729 3.15812L10.8179 2.418ZM7.93868 2.25137C8.77939 1.42728 10.1405 1.42728 10.9812 2.25137L11.7363 2.99149C12.5802 3.81877 12.5802 5.16298 11.7363 5.99026L6.06116 11.5533C5.68146 11.9255 5.16792 12.1332 4.63328 12.1332H2.30912C1.93518 12.1332 1.62382 11.8296 1.63352 11.4482L1.69198 9.1494C1.70565 8.63854 1.91888 8.15226 2.28586 7.79253L7.93868 2.25137ZM8.72695 3.03385C9.13152 2.63727 9.78841 2.63727 10.193 3.03385L10.948 3.77397C11.3519 4.16992 11.3519 4.81183 10.948 5.20778L10.5502 5.59769L8.33061 3.42236L8.72695 3.03385ZM10.0296 3.20048C9.7158 2.89284 9.20413 2.89284 8.89029 3.20048L8.66395 3.42235L10.5502 5.27097L10.7847 5.04115C11.0953 4.73669 11.0953 4.24506 10.7847 3.9406L10.0296 3.20048ZM7.70401 4.03658L9.92365 6.21191L5.27198 10.7717L5.21111 10.8262C5.04971 10.9575 4.84559 11.0301 4.63328 11.0301L2.76266 11.0299L2.80991 9.17766C2.81599 8.95174 2.9106 8.73531 3.07413 8.57501L7.70401 4.03658ZM7.70403 4.36331L3.23746 8.74164C3.11672 8.85999 3.04763 9.01891 3.04317 9.18367L3.00202 10.7966L4.63328 10.7968C4.79137 10.7968 4.94249 10.7429 5.06167 10.6468L5.11414 10.5997L9.59031 6.21193L7.70403 4.36331ZM8.02729 10.7969H12.0408C12.4083 10.7969 12.7166 11.0904 12.7166 11.4651C12.7166 11.8085 12.4572 12.084 12.1314 12.1273L12.118 12.1291L12.0466 12.1336L8.03305 12.1333C7.66553 12.1333 7.35724 11.8398 7.35724 11.4651C7.35724 11.1217 7.61663 10.8462 7.94248 10.8028L7.95786 10.9185L7.96938 11.0051L7.96361 10.9177L7.97899 11.0334L7.97515 11.0339L7.97323 11.0341C7.75783 11.0628 7.59057 11.2441 7.59057 11.4651C7.59057 11.7061 7.78957 11.9 8.03305 11.9H12.0428L12.0987 11.8963L12.1006 11.896C12.316 11.8674 12.4833 11.686 12.4833 11.4651C12.4833 11.224 12.2843 11.0302 12.0408 11.0302H8.03113L7.97515 11.0339M8.02729 10.7969L8.01961 10.7971L8.02729 10.7969ZM8.01961 10.7971L7.95594 10.8013L8.01961 10.7971ZM7.95594 10.8013L7.94824 10.8021L7.95594 10.8013ZM7.94824 10.8021L7.94248 10.8028L7.94824 10.8021ZM7.95786 10.9185L7.94248 10.8028L7.95786 10.9185Z" fill="#8A8C8D"/>
</svg>
