<svg width="16" height="16" viewBox="0 0 16 16" fill="none" xmlns="http://www.w3.org/2000/svg">
<path fill-rule="evenodd" clip-rule="evenodd" d="M5.46263 6.82469L10.3623 1.93314C11.1647 1.13296 12.4651 1.13296 13.2674 1.93314L14.0655 2.7299C14.868 3.53102 14.868 4.83034 14.0655 5.63059L9.14243 10.5455C8.78329 10.9041 8.29627 11.1056 7.78835 11.1056H5.33237C5.05602 11.1056 4.83394 10.8783 4.84081 10.6025L4.90244 8.12817C4.9148 7.63816 5.11527 7.17147 5.46263 6.82469ZM13.3701 3.42415L12.5724 2.62777C12.154 2.21051 11.4757 2.21051 11.0575 2.62758L10.6544 3.03001L12.967 5.33879L13.3703 4.93617C13.7884 4.51917 13.7884 3.84179 13.3701 3.42415ZM12.2716 6.03303L9.95899 3.72425L6.15799 7.51894C5.98905 7.6876 5.89154 7.91458 5.88554 8.15274L5.83599 10.1232L7.78832 10.1238C8.00446 10.1238 8.21285 10.0487 8.37865 9.91309L8.447 9.85128L12.2716 6.03303ZM7.55719 1.35829C7.82876 1.35829 8.04891 1.57808 8.04891 1.8492C8.04891 2.09772 7.86392 2.30311 7.62391 2.33562L7.55719 2.3401H5.1058C3.45261 2.3401 2.38179 3.43495 2.32023 5.13519L2.31742 5.29141V10.7332C2.31742 12.4721 3.33617 13.6158 4.95682 13.6816L5.1058 13.6846H10.891C12.5484 13.6846 13.6159 12.5921 13.6773 10.8897L13.6801 10.7332V8.09676C13.6801 7.82564 13.9002 7.60586 14.1718 7.60586C14.4207 7.60586 14.6265 7.79054 14.659 8.03015L14.6635 8.09676V10.7332C14.6635 12.9993 13.2257 14.5926 11.0444 14.6639L10.891 14.6664H5.1058C2.89086 14.6664 1.4028 13.1245 1.33631 10.8902L1.33398 10.7332V5.29141C1.33398 3.02755 2.77549 1.43214 4.95272 1.36079L5.1058 1.35829H7.55719Z" fill="#3B5A90"/>
</svg>
