<svg width="16" height="16" viewBox="0 0 16 16" fill="none" xmlns="http://www.w3.org/2000/svg">
<g clip-path="url(#clip0)">
<path fill-rule="evenodd" clip-rule="evenodd" d="M16 8C16 12.4183 12.4183 16 8 16C3.58172 16 0 12.4183 0 8C0 3.58172 3.58172 0 8 0C12.4183 0 16 3.58172 16 8ZM7 4C7 3.44772 7.44771 3 8 3C8.55228 3 9 3.44772 9 4V10C9 10.5523 8.55228 11 8 11C7.44771 11 7 10.5523 7 10V4ZM8 12C7.44771 12 7 12.4477 7 13C7 13.5523 7.44771 14 8 14C8.55228 14 9 13.5523 9 13C9 12.4477 8.55228 12 8 12Z" fill="#9DACC7"/>
</g>
<defs>
<clipPath id="clip0">
<rect width="16" height="16" fill="white"/>
</clipPath>
</defs>
</svg>
