<svg width="52" height="34" viewBox="0 0 52 34" fill="none" xmlns="http://www.w3.org/2000/svg">
<path fill-rule="evenodd" clip-rule="evenodd" d="M0.855711 18.0686C0.527263 17.4117 0.527263 16.6385 0.855711 15.9816L0.982185 15.7287C1.70758 14.2779 4.31423 10.6066 8.32707 7.28563C12.3831 3.92893 18.1941 0.66684 25.3171 0.66684C39.302 0.66684 47.3268 11.17 50.4136 15.2858L50.6582 15.6119C51.2608 16.4154 51.2817 17.5143 50.71 18.3401L50.478 18.6752C47.3384 23.2101 39.3276 33.3834 26.3524 33.3834C18.2866 33.3834 12.2185 30.1994 8.06823 26.7646C3.96617 23.3698 1.65654 19.6703 0.982185 18.3216L0.855711 18.0686ZM4.15127 18.0314C3.76204 17.4086 3.76571 16.6434 4.17434 16.0331C6.4797 12.5902 14.2576 3.56578 25.3171 3.56578C36.5381 3.56578 43.5364 11.1666 47.0747 15.6896C47.6936 16.4807 47.714 17.5859 47.1139 18.3912C43.596 23.1121 36.6756 30.4845 26.3524 30.4845C13.4675 30.4845 6.30949 21.4849 4.15127 18.0314Z" fill="#D42335"/>
<path d="M37.4238 18.0458C37.4238 23.7779 32.777 28.4247 27.0449 28.4247C21.3128 28.4247 16.666 23.7779 16.666 18.0458C16.666 12.3137 21.3128 7.66696 27.0449 7.66696C32.777 7.66696 37.4238 12.3137 37.4238 18.0458Z" fill="#F2BDC2"/>
<path fill-rule="evenodd" clip-rule="evenodd" d="M26.0007 8.1993C21.1399 8.1993 17.1995 12.1397 17.1995 17.0005C17.1995 21.8612 21.1399 25.8016 26.0007 25.8016C30.8614 25.8016 34.8018 21.8612 34.8018 17.0005C34.8018 12.1397 30.8614 8.1993 26.0007 8.1993ZM14.334 17.0005C14.334 10.5571 19.5573 5.3338 26.0007 5.3338C32.444 5.3338 37.6673 10.5571 37.6673 17.0005C37.6673 23.4438 32.444 28.6671 26.0007 28.6671C19.5573 28.6671 14.334 23.4438 14.334 17.0005Z" fill="#D42335" stroke="white" stroke-width="0.3"/>
<circle cx="26" cy="17" r="9" fill="#F2BDC2"/>
<path fill-rule="evenodd" clip-rule="evenodd" d="M23.0062 18.4723C23.3736 19.1995 23.989 19.7713 24.7412 20.0844C25.4934 20.3976 26.3327 20.4314 27.1077 20.1798C27.8826 19.9281 28.542 19.4077 28.9667 18.7124C29.3914 18.0171 29.5535 17.1928 29.4236 16.3885C29.2937 15.5841 28.8804 14.8528 28.2585 14.3265C27.6365 13.8002 26.8468 13.5138 26.032 13.5188C25.3215 13.5233 24.7419 12.9508 24.7375 12.2403C24.733 11.5297 25.3055 10.9501 26.016 10.9457C27.4449 10.9368 28.8298 11.4392 29.9205 12.3621C31.0113 13.2851 31.7361 14.5677 31.9639 15.9783C32.1917 17.3889 31.9075 18.8344 31.1626 20.0538C30.4177 21.2731 29.2614 22.1859 27.9024 22.6272C26.5433 23.0685 25.0713 23.0092 23.7522 22.46C22.4331 21.9108 21.3539 20.908 20.7095 19.6327C20.0652 18.3574 19.8981 16.8937 20.2386 15.506C20.408 14.8159 21.1047 14.3937 21.7948 14.563C22.4849 14.7324 22.907 15.4291 22.7377 16.1192C22.5435 16.9104 22.6388 17.7451 23.0062 18.4723Z" fill="#D42335"/>
</svg>
