<svg width="40" height="40" viewBox="0 0 40 40" fill="none" xmlns="http://www.w3.org/2000/svg">
<path d="M0 20C0 8.95431 8.95431 0 20 0C31.0457 0 40 8.95431 40 20C40 31.0457 31.0457 40 20 40C8.95431 40 0 31.0457 0 20Z" fill="white"/>
<path fill-rule="evenodd" clip-rule="evenodd" d="M15.7599 14.2138C15.7599 13.1268 14.8646 12.2419 13.7623 12.2419C12.6611 12.2419 11.7647 13.1268 11.7647 14.2138C11.7647 15.3007 12.6611 16.1856 13.7623 16.1856C14.8646 16.1856 15.7599 15.3007 15.7599 14.2138ZM17.5246 14.2138C17.5246 16.2611 15.8375 17.9275 13.7623 17.9275C11.6882 17.9275 10 16.2611 10 14.2138C10 12.1664 11.6882 10.5 13.7623 10.5C15.8375 10.5 17.5246 12.1664 17.5246 14.2138ZM30 14.214C30 13.7332 29.6047 13.343 29.1177 13.343H21.8825C21.3954 13.343 21.0002 13.7332 21.0002 14.214C21.0002 14.6948 21.3954 15.085 21.8825 15.085H29.1177C29.6047 15.085 30 14.6948 30 14.214ZM24.2397 25.7862C24.2397 26.8732 25.135 27.7581 26.2374 27.7581C27.3397 27.7581 28.235 26.8732 28.235 25.7862C28.235 24.6981 27.3397 23.8144 26.2374 23.8144C25.135 23.8144 24.2397 24.6981 24.2397 25.7862ZM22.4751 25.7862C22.4751 23.7377 24.1621 22.0725 26.2374 22.0725C28.3126 22.0725 29.9996 23.7377 29.9996 25.7862C29.9996 27.8336 28.3126 29.5 26.2374 29.5C24.1621 29.5 22.4751 27.8336 22.4751 25.7862ZM10.8832 24.9149H18.1172C18.6042 24.9149 18.9995 25.3051 18.9995 25.7859C18.9995 26.2667 18.6042 26.6568 18.1172 26.6568H10.8832C10.3961 26.6568 10.0008 26.2667 10.0008 25.7859C10.0008 25.3051 10.3961 24.9149 10.8832 24.9149Z" fill="#15191C"/>
</svg>
