<svg width="20" height="20" viewBox="0 0 20 20" fill="none" xmlns="http://www.w3.org/2000/svg">
<path fill-rule="evenodd" clip-rule="evenodd" d="M13.6122 1.66699H6.38802C3.5567 1.66699 1.66718 3.69416 1.66718 6.59699V13.4037C1.66718 16.3092 3.55166 18.3337 6.38802 18.3337H13.6114C16.4485 18.3337 18.3339 16.3092 18.3339 13.4037V6.59699C18.3339 3.69158 16.4487 1.66699 13.6122 1.66699ZM6.38802 2.91699H13.6122C15.7376 2.91699 17.0839 4.3628 17.0839 6.59699V13.4037C17.0839 15.638 15.7375 17.0837 13.6114 17.0837H6.38802C4.26282 17.0837 2.91718 15.6381 2.91718 13.4037V6.59699C2.91718 4.36564 4.26747 2.91699 6.38802 2.91699ZM9.99994 6.21208C10.3451 6.21208 10.6249 6.4919 10.6249 6.83708C10.6249 7.15349 10.3898 7.41498 10.0847 7.45637L9.99161 7.46208C9.64643 7.46208 9.36661 7.18225 9.36661 6.83708C9.36661 6.52066 9.60173 6.25917 9.9068 6.21778L9.99994 6.21208ZM9.99161 8.85608C10.308 8.85608 10.5695 9.09121 10.6109 9.39627L10.6166 9.48108V13.1636C10.6166 13.5088 10.3368 13.7886 9.99161 13.7886C9.67519 13.7886 9.4137 13.5534 9.37231 13.2484L9.36661 13.1636V9.48108C9.36661 9.1359 9.64643 8.85608 9.99161 8.85608Z" fill="#15191C"/>
</svg>
