<svg width="20" height="20" viewBox="0 0 20 20" fill="none" xmlns="http://www.w3.org/2000/svg">
<path fill-rule="evenodd" clip-rule="evenodd" d="M10.0036 1.66663C7.55858 1.66663 5.5765 3.65716 5.5765 6.1126C5.5765 8.56805 7.55858 10.5586 10.0036 10.5586C12.4486 10.5586 14.4307 8.56805 14.4307 6.1126C14.4307 3.65716 12.4486 1.66663 10.0036 1.66663ZM10.0036 2.87302C11.7852 2.87302 13.2295 4.32344 13.2295 6.11261C13.2295 7.90178 11.7852 9.3522 10.0036 9.3522C8.22204 9.3522 6.77779 7.90178 6.77779 6.11261C6.77779 4.32344 8.22204 2.87302 10.0036 2.87302ZM8.19175 12.3507C7.54365 12.3957 6.88855 12.4882 6.24237 12.6267C4.99519 12.8836 3.99742 13.3969 3.57274 14.2499C3.41256 14.5834 3.33203 14.9406 3.33339 15.3022C3.33291 15.6612 3.41279 16.0189 3.56722 16.346C3.97499 17.1892 4.85654 17.6664 6.04691 17.9309L6.26015 17.9754C6.88878 18.1172 7.54408 18.2127 8.20376 18.2575C8.25995 18.274 8.39385 18.2893 8.54001 18.2967L8.66022 18.3013C8.72204 18.3027 8.79219 18.303 8.89671 18.303C9.84491 18.3552 10.8279 18.34 11.8063 18.2567C12.3277 18.221 12.8526 18.1529 13.3731 18.053L13.7626 17.9721C15.048 17.7185 16.0105 17.2363 16.4322 16.347C16.7448 15.6867 16.7448 14.9205 16.4323 14.2606C16.0117 13.3735 15.0615 12.8953 13.7528 12.6257C13.2394 12.5161 12.7177 12.435 12.1923 12.3832L11.8081 12.3507C10.605 12.2446 9.39489 12.2446 8.19175 12.3507ZM11.703 13.5525L11.7136 13.5533C12.3166 13.5958 12.916 13.6804 13.5073 13.8066C14.4793 14.0069 15.139 14.3388 15.3476 14.779C15.5048 15.1108 15.5048 15.4965 15.3475 15.8286C15.1525 16.2399 14.5601 16.5576 13.7038 16.7517L13.5163 16.7914C12.9134 16.926 12.316 17.0127 11.7147 17.0539C10.7817 17.1332 9.85418 17.1476 8.92903 17.0975L8.60103 17.0919C8.50997 17.0873 8.43324 17.0785 8.36212 17.0642C7.799 17.0217 7.29228 16.9545 6.80028 16.8569L6.50652 16.7947C5.53148 16.6036 4.86602 16.2702 4.65026 15.8241C4.57476 15.6641 4.53443 15.4836 4.53467 15.3008C4.534 15.119 4.57379 14.9425 4.65105 14.7815C4.86083 14.3603 5.56605 13.9975 6.48844 13.8075C7.084 13.6799 7.68307 13.5953 8.28584 13.5533C9.43008 13.4525 10.5698 13.4525 11.703 13.5525Z" fill="#15191C"/>
</svg>
