<svg width="14" height="14" viewBox="0 0 14 14" fill="none" xmlns="http://www.w3.org/2000/svg">
<path fill-rule="evenodd" clip-rule="evenodd" d="M6.74103 0C3.02512 0 0 2.94772 0 6.59951C0 10.2513 3.02512 13.199 6.74103 13.199C8.22531 13.199 9.59887 12.729 10.7133 11.932L12.6007 13.7729L12.6748 13.8353L12.6847 13.8425C13.0071 14.0758 13.4627 14.0504 13.7559 13.7629C14.082 13.4433 14.0812 12.9226 13.7544 12.6038L11.9245 10.8189C12.8963 9.67586 13.4821 8.20477 13.4821 6.59951C13.4821 2.94772 10.4569 0 6.74103 0ZM1.65362 6.59951C1.65362 3.86291 3.92427 1.63183 6.74103 1.63183C9.55778 1.63183 11.8284 3.86291 11.8284 6.59951C11.8284 9.3361 9.55778 11.5672 6.74103 11.5672C3.92427 11.5672 1.65362 9.3361 1.65362 6.59951Z" fill="#3B5A90"/>
</svg>
