<svg width="24" height="24" viewBox="0 0 24 24" fill="none" xmlns="http://www.w3.org/2000/svg">
<path fill-rule="evenodd" clip-rule="evenodd" d="M2.00146 6C2.00146 5.44772 2.49477 5 3.10328 5H10.8996C11.5082 5 12.0015 5.44772 12.0015 6C12.0015 6.55228 11.5082 7 10.8996 7L3.10328 7C2.49477 7 2.00146 6.55228 2.00146 6ZM2.00146 12C2.00146 11.4477 2.49477 11 3.10328 11L6.89965 11C7.50816 11 8.00147 11.4477 8.00146 12C8.00147 12.5523 7.50816 13 6.89965 13H3.10328C2.49477 13 2.00146 12.5523 2.00146 12ZM3.10182 17.0004C2.4933 17.0004 2 17.4481 2 18.0004C2 18.5527 2.4933 19.0004 3.10182 19.0004H6.89818C7.5067 19.0004 8 18.5527 8 18.0004C8 17.4481 7.5067 17.0004 6.89818 17.0004H3.10182ZM15.7231 19.7075L10.7231 14.7075C10.3325 14.3169 10.3325 13.6838 10.7231 13.2933C11.1136 12.9027 11.7468 12.9027 12.1373 13.2933L15.4302 16.5862L15.4302 6.00037C15.4302 5.44808 15.8779 5.00037 16.4302 5.00037C16.9825 5.00037 17.4302 5.44808 17.4302 6.00037L17.4302 16.5862L20.7231 13.2933C21.1136 12.9027 21.7468 12.9027 22.1373 13.2933C22.5278 13.6838 22.5278 14.3169 22.1373 14.7075L17.1373 19.7075C16.7468 20.098 16.1136 20.098 15.7231 19.7075Z" fill="#15191C"/>
</svg>
