<svg width="40" height="40" viewBox="0 0 40 40" fill="none" xmlns="http://www.w3.org/2000/svg">
<path d="M0 20C0 8.95431 8.95431 0 20 0C31.0457 0 40 8.95431 40 20C40 31.0457 31.0457 40 20 40C8.95431 40 0 31.0457 0 20Z" fill="#EBEFF4"/>
<path fill-rule="evenodd" clip-rule="evenodd" d="M10.0015 14C10.0015 13.4477 10.4948 13 11.1033 13H18.8996C19.5082 13 20.0015 13.4477 20.0015 14C20.0015 14.5523 19.5082 15 18.8996 15L11.1033 15C10.4948 15 10.0015 14.5523 10.0015 14ZM10.0015 20C10.0015 19.4477 10.4948 19 11.1033 19L14.8996 19C15.5082 19 16.0015 19.4477 16.0015 20C16.0015 20.5523 15.5082 21 14.8996 21H11.1033C10.4948 21 10.0015 20.5523 10.0015 20ZM11.1018 25.0004C10.4933 25.0004 10 25.4481 10 26.0004C10 26.5527 10.4933 27.0004 11.1018 27.0004H14.8982C15.5067 27.0004 16 26.5527 16 26.0004C16 25.4481 15.5067 25.0004 14.8982 25.0004H11.1018ZM23.7231 27.7075L18.7231 22.7075C18.3325 22.3169 18.3325 21.6838 18.7231 21.2933C19.1136 20.9027 19.7468 20.9027 20.1373 21.2933L23.4302 24.5862L23.4302 14.0004C23.4302 13.4481 23.8779 13.0004 24.4302 13.0004C24.9825 13.0004 25.4302 13.4481 25.4302 14.0004L25.4302 24.5862L28.7231 21.2933C29.1136 20.9027 29.7468 20.9027 30.1373 21.2933C30.5278 21.6838 30.5278 22.3169 30.1373 22.7075L25.1373 27.7075C24.7468 28.098 24.1136 28.098 23.7231 27.7075Z" fill="#15191C"/>
</svg>
