<svg width="22" height="22" viewBox="0 0 22 22" fill="none" xmlns="http://www.w3.org/2000/svg">
<path fill-rule="evenodd" clip-rule="evenodd" d="M11 22C17.0751 22 22 17.0751 22 11C22 4.92487 17.0751 0 11 0C4.92487 0 0 4.92487 0 11C0 17.0751 4.92487 22 11 22ZM18.0669 7.72729C18.5624 7.23179 18.5413 6.4485 18.0197 5.97777C17.4981 5.50705 16.6736 5.52713 16.1781 6.02263L8.87253 13.3282L5.8222 10.2779C5.3267 9.78239 4.50219 9.76231 3.98061 10.233C3.45903 10.7038 3.43789 11.487 3.93339 11.9825L7.92812 15.9773C8.17405 16.2232 8.51546 16.3625 8.87253 16.3625C9.2296 16.3625 9.57101 16.2232 9.81694 15.9773L18.0669 7.72729Z" fill="#2BBF6A"/>
</svg>
