<svg width="20" height="20" viewBox="0 0 20 20" fill="none" xmlns="http://www.w3.org/2000/svg">
<path fill-rule="evenodd" clip-rule="evenodd" d="M9.99984 1.66711C5.39716 1.66711 1.6665 5.39777 1.6665 10.0004C1.6665 14.6031 5.39716 18.3338 9.99984 18.3338C14.6025 18.3338 18.3332 14.6031 18.3332 10.0004C18.3332 5.39777 14.6025 1.66711 9.99984 1.66711ZM9.99984 2.91711C13.9122 2.91711 17.0832 6.08813 17.0832 10.0004C17.0832 13.9128 13.9122 17.0838 9.99984 17.0838C6.08751 17.0838 2.9165 13.9128 2.9165 10.0004C2.9165 6.08813 6.08751 2.91711 9.99984 2.91711ZM10.3371 6.4543C10.2957 6.14924 10.0342 5.91411 9.71783 5.91411C9.37266 5.91411 9.09283 6.19393 9.09283 6.53911V10.5783L9.0998 10.6714C9.12741 10.8548 9.23561 11.0184 9.39764 11.115L12.5393 12.9892L12.6151 13.0277C12.8982 13.1485 13.2341 13.0444 13.3962 12.7726L13.4348 12.6969C13.5555 12.4137 13.4514 12.0778 13.1797 11.9157L10.3425 10.2225L10.3428 6.53911L10.3371 6.4543Z" fill="#15191C"/>
</svg>
