<svg width="14" height="14" viewBox="0 0 14 14" fill="none" xmlns="http://www.w3.org/2000/svg">
<path fill-rule="evenodd" clip-rule="evenodd" d="M8.37893 1.16666H5.97095L5.87235 1.17035L5.8653 1.17092C5.3053 1.21625 4.8313 1.61746 4.68577 2.17561L4.68441 2.18081L4.53998 2.91742L4.52594 2.97119C4.4781 3.10995 4.35082 3.20198 4.21033 3.20198H2.34561L2.27565 3.20681L2.26964 3.20764C1.97277 3.24894 1.75 3.50782 1.75 3.8145C1.75 4.1486 2.01524 4.42701 2.35164 4.42701H12.0044L12.0743 4.42219L12.0804 4.42135C12.3772 4.38005 12.6 4.12117 12.6 3.8145C12.6 3.48039 12.3348 3.20198 11.9984 3.20198H10.1453L10.0921 3.19848C9.95598 3.17826 9.83988 3.07088 9.81094 2.92268L9.67111 2.20516L9.6406 2.10258L9.6385 2.09642C9.44851 1.53714 8.9502 1.16666 8.37893 1.16666ZM8.63055 3.16115L8.63999 3.20198H5.71071C5.71368 3.18859 5.71651 3.17505 5.71915 3.16152L5.85458 2.46652L5.86054 2.45075C5.87746 2.42226 5.9205 2.39169 5.97095 2.39169H8.37148L8.40529 2.39457C8.448 2.40411 8.48567 2.43728 8.49991 2.48562L8.63055 3.16115ZM3.72669 5.56748C3.66443 5.27523 3.39766 5.06199 3.09021 5.08734C2.75525 5.11495 2.51298 5.41418 2.53907 5.74703L2.691 7.62431L2.69105 7.62501L2.82393 9.1889L2.82402 9.18995L2.95372 10.6151L3.02812 11.3516L3.02824 11.3527C3.08555 11.8848 3.28877 12.3329 3.6188 12.6515C3.94958 12.9709 4.39575 13.1485 4.91589 13.1594C6.3599 13.1906 7.84665 13.1909 9.39296 13.1624C9.92575 13.1524 10.3816 12.9781 10.7194 12.6586C11.0567 12.3397 11.2631 11.8887 11.3214 11.3487C11.353 11.0569 11.3895 10.6868 11.4303 10.2487L11.4304 10.2477L11.6228 8.05536L11.6229 8.0543L11.8065 5.80776L11.8127 5.67292L11.8122 5.66424C11.7964 5.36625 11.5672 5.11273 11.2602 5.08735L11.2542 5.08686L11.184 5.0859L11.178 5.08624C10.8786 5.10295 10.6359 5.3432 10.6117 5.64898L10.424 7.94955L10.5983 7.96469L10.424 7.95047L10.2682 9.74315C10.2437 10.0128 10.2207 10.2604 10.1991 10.485L10.3731 10.5026L10.199 10.4859L10.1253 11.2152C10.0967 11.4789 10.016 11.6512 9.90223 11.7594C9.78942 11.8666 9.62096 11.9328 9.37099 11.9375C7.83972 11.9658 6.36868 11.9655 4.94107 11.9346C4.70998 11.9298 4.55057 11.8644 4.44193 11.7578C4.3316 11.6495 4.25219 11.4776 4.22434 11.219C4.17604 10.7718 4.11555 10.1339 4.04572 9.34466L3.89006 7.52177L3.89 7.52102L3.74744 5.76186L3.72867 5.5768L3.72669 5.56748ZM10.2992 11.2334L10.1253 11.2152L10.1252 11.2158L10.2992 11.2334ZM3.57286 5.77601L3.57298 5.776L3.57286 5.77601L3.57286 5.77601ZM3.55541 5.60396L3.55553 5.60394L3.55541 5.60395C3.55541 5.60396 3.55541 5.60396 3.55541 5.60396ZM11.6374 5.67353L11.6375 5.67352L11.6374 5.67352C11.6374 5.67352 11.6374 5.67352 11.6374 5.67353Z" fill="#8A8C8D"/>
<path d="M5.97095 1.16666V0.966516L5.96347 0.966797L5.97095 1.16666ZM5.87235 1.17035L5.86486 0.970301L5.85622 0.971001L5.87235 1.17035ZM5.8653 1.17092L5.88143 1.37027L5.88143 1.37027L5.8653 1.17092ZM4.68577 2.17561L4.49224 2.12515L4.49224 2.12515L4.68577 2.17561ZM4.68441 2.18081L4.49052 2.13026L4.48815 2.14233L4.68441 2.18081ZM4.53998 2.91742L4.73386 2.96804L4.73624 2.95591L4.53998 2.91742ZM4.52594 2.97119L4.71502 3.03639L4.71752 3.02913L4.71946 3.02171L4.52594 2.97119ZM2.34561 3.20198V3.00151L2.33185 3.00246L2.34561 3.20198ZM2.27565 3.20681L2.26185 3.0068L2.2481 3.00872L2.27565 3.20681ZM2.26964 3.20764L2.24208 3.00955L2.24208 3.00955L2.26964 3.20764ZM12.0044 4.42701V4.62749L12.0182 4.62654L12.0044 4.42701ZM12.0743 4.42219L12.0882 4.62219L12.1019 4.62028L12.0743 4.42219ZM12.0804 4.42135L12.0528 4.22326L12.0804 4.42135ZM10.1453 3.20198L10.1322 3.40198H10.1453V3.20198ZM10.0921 3.19848L10.0627 3.39631L10.0708 3.39752L10.0789 3.39806L10.0921 3.19848ZM9.81094 2.92268L9.61463 2.96094L9.61465 2.96102L9.81094 2.92268ZM9.67111 2.20516L9.86742 2.1669L9.86557 2.1574L9.86281 2.14812L9.67111 2.20516ZM9.6406 2.10258L9.83243 2.04551L9.82996 2.03824L9.6406 2.10258ZM9.6385 2.09642L9.44913 2.16076L9.44913 2.16076L9.6385 2.09642ZM8.63999 3.20198V3.40198H8.89152L8.83485 3.15692L8.63999 3.20198ZM8.63055 3.16115L8.43406 3.19915L8.43569 3.20621L8.63055 3.16115ZM5.71071 3.20198L5.51546 3.15866L5.46147 3.40198H5.71071V3.20198ZM5.71915 3.16152L5.91544 3.19985L5.91546 3.19977L5.71915 3.16152ZM5.85458 2.46652L5.66749 2.39583L5.66151 2.41165L5.65828 2.42826L5.85458 2.46652ZM5.86054 2.45075L5.68858 2.34863L5.67964 2.36368L5.67345 2.38006L5.86054 2.45075ZM8.37148 2.39169L8.38848 2.19241L8.38 2.19169H8.37148V2.39169ZM8.40529 2.39457L8.44888 2.19938L8.43572 2.19644L8.42229 2.1953L8.40529 2.39457ZM8.49991 2.48562L8.69627 2.44764L8.69446 2.43827L8.69176 2.42911L8.49991 2.48562ZM3.09021 5.08734L3.10664 5.28666H3.10664L3.09021 5.08734ZM3.72669 5.56748L3.53107 5.60915L3.53107 5.60915L3.72669 5.56748ZM2.53907 5.74703L2.33968 5.76267L2.33972 5.76317L2.53907 5.74703ZM2.691 7.62431L2.49165 7.64044L2.49168 7.64085L2.691 7.62431ZM2.69105 7.62501L2.49174 7.64155L2.49177 7.64194L2.69105 7.62501ZM2.82393 9.1889L2.62464 9.20583L2.6247 9.20643L2.82393 9.1889ZM2.82402 9.18995L2.62479 9.20748L2.62484 9.20808L2.82402 9.18995ZM2.95372 10.6151L2.75453 10.6332L2.75473 10.6352L2.95372 10.6151ZM3.02812 11.3516L2.82913 11.3717L2.8292 11.3723L3.02812 11.3516ZM3.02824 11.3527L2.82932 11.3735L2.82939 11.3741L3.02824 11.3527ZM3.6188 12.6515L3.75771 12.5076L3.6188 12.6515ZM4.91589 13.1594L4.92021 12.9595L4.9201 12.9595L4.91589 13.1594ZM9.39296 13.1624L9.39665 13.3623L9.3967 13.3623L9.39296 13.1624ZM10.7194 12.6586L10.582 12.5133L10.7194 12.6586ZM11.3214 11.3487L11.1226 11.3272L11.1226 11.3272L11.3214 11.3487ZM11.4303 10.2487L11.6294 10.2672L11.6295 10.2664L11.4303 10.2487ZM11.4304 10.2477L11.6296 10.2655L11.6296 10.2652L11.4304 10.2477ZM11.6228 8.05536L11.8221 8.07285L11.8221 8.07222L11.6228 8.05536ZM11.6229 8.0543L11.8222 8.07116L11.8223 8.07059L11.6229 8.0543ZM11.8065 5.80776L12.0059 5.82405L12.0063 5.81699L11.8065 5.80776ZM11.8127 5.67292L12.0125 5.68215L12.0129 5.67223L12.0124 5.66231L11.8127 5.67292ZM11.8122 5.66424L11.6125 5.67485V5.67485L11.8122 5.66424ZM11.2602 5.08735L11.2437 5.28667L11.2437 5.28667L11.2602 5.08735ZM11.2542 5.08686L11.2707 4.88706L11.2569 4.88687L11.2542 5.08686ZM11.184 5.0859L11.1868 4.88544L11.1729 4.88621L11.184 5.0859ZM11.178 5.08624L11.1891 5.28593L11.1891 5.28593L11.178 5.08624ZM10.6117 5.64898L10.8111 5.66524L10.8111 5.66475L10.6117 5.64898ZM10.424 7.94955L10.2247 7.93329L10.2085 8.13157L10.4067 8.1488L10.424 7.94955ZM10.5983 7.96469L10.582 8.16403L10.6156 7.76544L10.5983 7.96469ZM10.424 7.95047L10.4402 7.75113L10.2419 7.73496L10.2247 7.93315L10.424 7.95047ZM10.2682 9.74315L10.4673 9.76119L10.4674 9.76047L10.2682 9.74315ZM10.1991 10.485L10 10.4659L9.98101 10.664L10.179 10.684L10.1991 10.485ZM10.3731 10.5026L10.354 10.7017L10.3933 10.3037L10.3731 10.5026ZM10.199 10.4859L10.2182 10.2868L10.0201 10.2678L10.0001 10.4658L10.199 10.4859ZM9.90223 11.7594L9.76442 11.6144H9.76442L9.90223 11.7594ZM9.37099 11.9375L9.37469 12.1375L9.37474 12.1375L9.37099 11.9375ZM4.94107 11.9346L4.9454 11.7347L4.94527 11.7347L4.94107 11.9346ZM4.44193 11.7578L4.30184 11.9005L4.30184 11.9005L4.44193 11.7578ZM4.22434 11.219L4.42319 11.1976L4.42318 11.1975L4.22434 11.219ZM4.04572 9.34466L3.84644 9.36168L3.8465 9.36229L4.04572 9.34466ZM3.89006 7.52177L3.69075 7.53836L3.69079 7.53878L3.89006 7.52177ZM3.89 7.52102L3.69065 7.53717L3.69069 7.53761L3.89 7.52102ZM3.74744 5.76186L3.94683 5.7457L3.94642 5.74167L3.74744 5.76186ZM3.72867 5.5768L3.92765 5.55661L3.92655 5.54578L3.92428 5.53513L3.72867 5.5768ZM10.2992 11.2334L10.2791 11.4324L10.3201 11.0345L10.2992 11.2334ZM10.1252 11.2158L9.92622 11.1958L9.90625 11.3947L10.1051 11.4148L10.1252 11.2158ZM3.57286 5.77601L3.37386 5.79591L3.39378 5.99515L3.593 5.975L3.57286 5.77601ZM3.57298 5.776L3.59311 5.97498L3.55696 5.57664L3.57298 5.776ZM3.57286 5.77601L3.55684 5.57665L3.35356 5.59299L3.37386 5.79591L3.57286 5.77601ZM3.55541 5.60396L3.35961 5.64476L3.40056 5.84127L3.59692 5.79961L3.55541 5.60396ZM3.55553 5.60394L3.59703 5.79959L3.5353 5.40497L3.55553 5.60394ZM3.55541 5.60395L3.53519 5.40498L3.31172 5.42769L3.3601 5.64703L3.55541 5.60395ZM11.6374 5.67353H11.4374V5.88431L11.6479 5.87325L11.6374 5.67353ZM11.6375 5.67352L11.648 5.87325L11.6466 5.47373L11.6375 5.67352ZM11.6374 5.67352L11.6465 5.47373L11.4374 5.46414V5.67352H11.6374ZM5.97095 1.36666H8.37893V0.966656H5.97095V1.36666ZM5.87984 1.37021L5.97844 1.36652L5.96347 0.966797L5.86487 0.970489L5.87984 1.37021ZM5.88143 1.37027L5.88849 1.3697L5.85622 0.971001L5.84916 0.971572L5.88143 1.37027ZM4.8793 2.22607C5.0039 1.74819 5.40828 1.40856 5.88143 1.37027L5.84916 0.971572C5.20231 1.02393 4.6587 1.48673 4.49224 2.12515L4.8793 2.22607ZM4.87794 2.23127L4.8793 2.22607L4.49224 2.12515L4.49088 2.13036L4.87794 2.23127ZM4.73624 2.95591L4.88068 2.2193L4.48815 2.14233L4.34372 2.87894L4.73624 2.95591ZM4.71946 3.02171L4.73349 2.96794L4.34646 2.86691L4.33243 2.92068L4.71946 3.02171ZM4.21033 3.40198C4.43955 3.40198 4.64049 3.25255 4.71502 3.03639L4.33687 2.906C4.31571 2.96735 4.26208 3.00198 4.21033 3.00198V3.40198ZM2.34561 3.40198H4.21033V3.00198H2.34561V3.40198ZM2.28942 3.40633L2.35938 3.40151L2.33185 3.00246L2.26189 3.00728L2.28942 3.40633ZM2.29719 3.40574L2.30321 3.4049L2.2481 3.00872L2.24208 3.00955L2.29719 3.40574ZM1.95 3.8145C1.95 3.605 2.10178 3.43292 2.2972 3.40574L2.24208 3.00955C1.84377 3.06496 1.55 3.41065 1.55 3.8145H1.95ZM2.35164 4.22701C2.13082 4.22701 1.95 4.04334 1.95 3.8145H1.55C1.55 4.25387 1.89966 4.62701 2.35164 4.62701V4.22701ZM12.0044 4.22701H2.35164V4.62701H12.0044V4.22701ZM12.0606 4.22266L11.9906 4.22749L12.0182 4.62654L12.0881 4.62171L12.0606 4.22266ZM12.0528 4.22326L12.0468 4.22409L12.1019 4.62028L12.1079 4.61944L12.0528 4.22326ZM12.4 3.8145C12.4 4.024 12.2482 4.19607 12.0528 4.22326L12.1079 4.61944C12.5062 4.56403 12.8 4.21834 12.8 3.8145H12.4ZM11.9984 3.40198C12.2192 3.40198 12.4 3.58565 12.4 3.8145H12.8C12.8 3.37513 12.4503 3.00198 11.9984 3.00198V3.40198ZM10.1453 3.40198H11.9984V3.00198H10.1453V3.40198ZM10.0789 3.39806L10.1322 3.40155L10.1584 3.00241L10.1052 2.99891L10.0789 3.39806ZM9.61465 2.96102C9.65953 3.19086 9.84128 3.36341 10.0627 3.39631L10.1215 3.00066C10.0707 2.99311 10.0202 2.95091 10.0072 2.88435L9.61465 2.96102ZM9.47481 2.24341L9.61463 2.96094L10.0072 2.88443L9.86742 2.1669L9.47481 2.24341ZM9.4489 2.15962L9.47942 2.26219L9.86281 2.14812L9.83229 2.04555L9.4489 2.15962ZM9.44913 2.16076L9.45123 2.16692L9.82996 2.03824L9.82787 2.03208L9.44913 2.16076ZM8.37893 1.36666C8.8596 1.36666 9.28507 1.67781 9.44913 2.16076L9.82787 2.03209C9.61194 1.39646 9.04079 0.966656 8.37893 0.966656V1.36666ZM8.83485 3.15692L8.82541 3.11609L8.43569 3.20621L8.44513 3.24704L8.83485 3.15692ZM5.71071 3.40198H8.63999V3.00198H5.71071V3.40198ZM5.52286 3.12319C5.52054 3.13506 5.51806 3.14693 5.51546 3.15866L5.90596 3.24531C5.90931 3.23024 5.91247 3.21504 5.91544 3.19985L5.52286 3.12319ZM5.65828 2.42826L5.52284 3.12326L5.91546 3.19977L6.05089 2.50477L5.65828 2.42826ZM5.67345 2.38006L5.66749 2.39583L6.04167 2.53721L6.04763 2.52144L5.67345 2.38006ZM5.97095 2.19169C5.84651 2.19169 5.73976 2.26245 5.68858 2.34863L6.0325 2.55288C6.02611 2.56364 6.01988 2.57041 6.01591 2.5742C6.01168 2.57823 6.00771 2.5811 6.00405 2.58323C5.99718 2.58725 5.98611 2.59169 5.97095 2.59169V2.19169ZM8.37148 2.19169H5.97095V2.59169H8.37148V2.19169ZM8.42229 2.1953L8.38848 2.19241L8.35448 2.59096L8.38829 2.59385L8.42229 2.1953ZM8.69176 2.42911C8.65714 2.31158 8.56311 2.22489 8.44888 2.19938L8.36169 2.58976C8.3329 2.58333 8.3142 2.56297 8.30806 2.54212L8.69176 2.42911ZM8.82691 3.12317L8.69627 2.44764L8.30355 2.52359L8.43419 3.19912L8.82691 3.12317ZM3.10664 5.28666C3.30842 5.27003 3.48864 5.40992 3.53107 5.60915L3.9223 5.52582C3.84023 5.14054 3.48689 4.85396 3.07377 4.88802L3.10664 5.28666ZM2.73846 5.7314C2.72056 5.5031 2.88664 5.3048 3.10664 5.28666L3.07377 4.88802C2.62386 4.92511 2.30539 5.32527 2.33968 5.76267L2.73846 5.7314ZM2.89034 7.60818L2.73842 5.7309L2.33972 5.76317L2.49165 7.64044L2.89034 7.60818ZM2.89037 7.60847L2.89031 7.60778L2.49168 7.64085L2.49174 7.64155L2.89037 7.60847ZM3.02321 9.17197L2.89034 7.60808L2.49177 7.64194L2.62464 9.20583L3.02321 9.17197ZM3.02325 9.17242L3.02316 9.17137L2.6247 9.20643L2.62479 9.20748L3.02325 9.17242ZM3.1529 10.597L3.0232 9.17182L2.62484 9.20808L2.75454 10.6332L3.1529 10.597ZM3.22711 11.3315L3.15271 10.595L2.75473 10.6352L2.82913 11.3717L3.22711 11.3315ZM3.22716 11.3319L3.22704 11.3308L2.8292 11.3723L2.82932 11.3735L3.22716 11.3319ZM3.75771 12.5076C3.467 12.2269 3.28028 11.8252 3.22709 11.3313L2.82939 11.3741C2.89081 11.9444 3.11054 12.4388 3.47988 12.7954L3.75771 12.5076ZM4.9201 12.9595C4.44451 12.9494 4.04829 12.7882 3.75771 12.5076L3.47988 12.7954C3.85088 13.1536 4.34699 13.3475 4.91168 13.3594L4.9201 12.9595ZM9.38926 12.9624C7.84534 12.9909 6.36129 12.9906 4.92021 12.9595L4.91157 13.3594C6.35852 13.3907 7.84795 13.3909 9.39665 13.3623L9.38926 12.9624ZM10.582 12.5133C10.2853 12.7939 9.87944 12.9532 9.38922 12.9624L9.3967 13.3623C9.97205 13.3516 10.4778 13.1623 10.8568 12.8039L10.582 12.5133ZM11.1226 11.3272C11.0684 11.8288 10.8788 12.2326 10.582 12.5133L10.8568 12.8039C11.2346 12.4467 11.4578 11.9486 11.5203 11.3702L11.1226 11.3272ZM11.2312 10.2301C11.1904 10.6677 11.154 11.0368 11.1226 11.3272L11.5202 11.3702C11.552 11.077 11.5886 10.7058 11.6294 10.2672L11.2312 10.2301ZM11.2312 10.23L11.2311 10.2309L11.6295 10.2664L11.6296 10.2655L11.2312 10.23ZM11.4236 8.03788L11.2311 10.2303L11.6296 10.2652L11.8221 8.07285L11.4236 8.03788ZM11.4236 8.03745L11.4235 8.03851L11.8221 8.07222L11.8222 8.07116L11.4236 8.03745ZM11.6071 5.79147L11.4236 8.03802L11.8223 8.07059L12.0058 5.82404L11.6071 5.79147ZM11.6129 5.66369L11.6067 5.79853L12.0063 5.81699L12.0125 5.68215L11.6129 5.66369ZM11.6125 5.67485L11.613 5.68352L12.0124 5.66231L12.012 5.65364L11.6125 5.67485ZM11.2437 5.28667C11.4455 5.30336 11.6017 5.47112 11.6125 5.67485L12.012 5.65364C11.9911 5.26137 11.6888 4.92211 11.2766 4.88803L11.2437 5.28667ZM11.2377 5.28617L11.2437 5.28667L11.2766 4.88803L11.2706 4.88754L11.2377 5.28617ZM11.1813 5.28588L11.2514 5.28684L11.2569 4.88687L11.1868 4.88592L11.1813 5.28588ZM11.1891 5.28593L11.1952 5.28559L11.1729 4.88621L11.1668 4.88655L11.1891 5.28593ZM10.8111 5.66475C10.8276 5.45593 10.9924 5.29691 11.1891 5.28593L11.1668 4.88655C10.7647 4.909 10.4442 5.23047 10.4123 5.63322L10.8111 5.66475ZM10.6234 7.96581L10.8111 5.66524L10.4124 5.63272L10.2247 7.93329L10.6234 7.96581ZM10.6156 7.76544L10.4414 7.7503L10.4067 8.1488L10.581 8.16394L10.6156 7.76544ZM10.4077 8.14981L10.582 8.16403L10.6145 7.76536L10.4402 7.75113L10.4077 8.14981ZM10.4674 9.76047L10.6232 7.96779L10.2247 7.93315L10.0689 9.72583L10.4674 9.76047ZM10.3982 10.5042C10.4198 10.2791 10.4429 10.0311 10.4673 9.76119L10.069 9.72511C10.0446 9.99443 10.0216 10.2417 10 10.4659L10.3982 10.5042ZM10.3933 10.3037L10.2192 10.2861L10.179 10.684L10.353 10.7016L10.3933 10.3037ZM10.1799 10.685L10.354 10.7017L10.3923 10.3036L10.2182 10.2868L10.1799 10.685ZM10.3243 11.2353L10.398 10.506L10.0001 10.4658L9.9263 11.1951L10.3243 11.2353ZM10.04 11.9043C10.1992 11.753 10.2924 11.5297 10.3241 11.2367L9.92645 11.1937C9.90108 11.428 9.83289 11.5493 9.76442 11.6144L10.04 11.9043ZM9.37474 12.1375C9.65838 12.1322 9.88068 12.0558 10.04 11.9043L9.76442 11.6144C9.69815 11.6774 9.58355 11.7335 9.36725 11.7376L9.37474 12.1375ZM4.93675 12.1346C6.3673 12.1655 7.84103 12.1658 9.37469 12.1375L9.3673 11.7376C7.83842 11.7658 6.37006 11.7655 4.9454 11.7347L4.93675 12.1346ZM4.30184 11.9005C4.45569 12.0515 4.6688 12.129 4.93688 12.1346L4.94527 11.7347C4.75117 11.7306 4.64544 11.6773 4.58203 11.615L4.30184 11.9005ZM4.02549 11.2404C4.0565 11.5283 4.14819 11.7497 4.30184 11.9005L4.58203 11.615C4.51501 11.5493 4.44789 11.4269 4.42319 11.1976L4.02549 11.2404ZM3.8465 9.36229C3.91636 10.1519 3.97699 10.7913 4.0255 11.2405L4.42318 11.1975C4.3751 10.7523 4.31474 10.1159 4.24494 9.32704L3.8465 9.36229ZM3.69079 7.53878L3.84645 9.36168L4.245 9.32765L4.08934 7.50475L3.69079 7.53878ZM3.69069 7.53761L3.69075 7.53836L4.08937 7.50518L4.08931 7.50443L3.69069 7.53761ZM3.5481 5.77801L3.69065 7.53717L4.08935 7.50486L3.94679 5.7457L3.5481 5.77801ZM3.52969 5.59699L3.54846 5.78204L3.94642 5.74167L3.92765 5.55661L3.52969 5.59699ZM3.53107 5.60915L3.53306 5.61847L3.92428 5.53513L3.9223 5.52581L3.53107 5.60915ZM10.3201 11.0345L10.1461 11.0163L10.1044 11.4141L10.2784 11.4323L10.3201 11.0345ZM9.92629 11.1952L9.92622 11.1958L10.3242 11.2358L10.3243 11.2352L9.92629 11.1952ZM10.1051 11.4148L10.2791 11.4324L10.3193 11.0344L10.1453 11.0169L10.1051 11.4148ZM3.593 5.975L3.59311 5.97498L3.55285 5.57702L3.55273 5.57703L3.593 5.975ZM3.55696 5.57664L3.55684 5.57665L3.58889 5.97537L3.589 5.97536L3.55696 5.57664ZM3.37386 5.79591L3.37386 5.79591L3.77187 5.75611L3.77187 5.75611L3.37386 5.79591ZM3.59692 5.79961L3.59703 5.79959L3.51402 5.4083L3.5139 5.40832L3.59692 5.79961ZM3.5353 5.40497L3.53519 5.40498L3.57563 5.80293L3.57575 5.80292L3.5353 5.40497ZM3.3601 5.64703C3.36014 5.64718 3.35989 5.64607 3.35961 5.64476L3.75121 5.56317C3.75106 5.56245 3.75093 5.56186 3.75084 5.56147C3.7508 5.56128 3.75077 5.56112 3.75075 5.56102C3.75074 5.56097 3.75073 5.56093 3.75072 5.56091C3.75072 5.5609 3.75072 5.56089 3.75071 5.56088C3.75071 5.56088 3.75071 5.56087 3.75071 5.56087C3.75071 5.56087 3.75071 5.56087 3.75071 5.56087C3.75071 5.56087 3.75071 5.56087 3.75071 5.56087L3.3601 5.64703ZM11.6479 5.87325L11.648 5.87325L11.627 5.4738L11.6269 5.4738L11.6479 5.87325ZM11.6466 5.47373L11.6465 5.47373L11.6282 5.87331L11.6283 5.87331L11.6466 5.47373ZM11.4374 5.67352C11.4374 5.68175 11.4379 5.68844 11.4383 5.69263C11.4385 5.69474 11.4387 5.69645 11.4388 5.69749C11.4389 5.69802 11.4389 5.69845 11.439 5.69871C11.439 5.69884 11.439 5.69895 11.439 5.69901C11.439 5.69905 11.439 5.69907 11.439 5.69909C11.439 5.6991 11.439 5.6991 11.439 5.69911C11.439 5.69911 11.439 5.69911 11.439 5.69911C11.439 5.69911 11.439 5.69911 11.439 5.69911C11.439 5.69912 11.439 5.69912 11.439 5.69912C11.4391 5.69965 11.4387 5.69642 11.4383 5.69264C11.4379 5.68844 11.4374 5.68176 11.4374 5.67353H11.8374C11.8374 5.66529 11.8369 5.65861 11.8365 5.65441C11.8363 5.6523 11.8361 5.65059 11.8359 5.64955C11.8359 5.64902 11.8358 5.64859 11.8358 5.64833C11.8358 5.6482 11.8357 5.64809 11.8357 5.64803C11.8357 5.648 11.8357 5.64797 11.8357 5.64795C11.8357 5.64794 11.8357 5.64794 11.8357 5.64793C11.8357 5.64793 11.8357 5.64793 11.8357 5.64793C11.8357 5.64793 11.8357 5.64793 11.8357 5.64793V5.64793C11.8357 5.6474 11.8361 5.65062 11.8365 5.65441C11.8369 5.6586 11.8374 5.66528 11.8374 5.67352H11.4374Z" fill="#8A8C8D"/>
</svg>
