<svg width="304" height="104" viewBox="0 0 304 104" fill="none" xmlns="http://www.w3.org/2000/svg">
<g clip-path="url(#clip0)">
<path d="M0 24C0 10.7452 10.7452 0 24 0H255C268.255 0 279 10.7452 279 24V80C279 93.2548 268.255 104 255 104H24C10.7452 104 0 93.2548 0 80V24Z" fill="#DD4F5D"/>
<path d="M227 0H261.561C266.563 0 271.277 2.33892 274.302 6.32177L297.972 37.4827C304.491 46.0634 304.49 57.9366 297.972 66.5173L274.302 97.6782C271.277 101.661 266.563 104 261.561 104H227V52V0Z" fill="#DD4F5D"/>
</g>
<defs>
<clipPath id="clip0">
<rect width="304" height="104" fill="white"/>
</clipPath>
</defs>
</svg>
