<svg width="309" height="104" viewBox="0 0 309 104" fill="none" xmlns="http://www.w3.org/2000/svg">
<path d="M0 24C0 10.7452 10.7452 0 24 0H255C268.255 0 279 10.7452 279 24V80C279 93.2548 268.255 104 255 104H24C10.7452 104 0 93.2548 0 80V24Z" fill="white"/>
<path d="M24 1H255V-1H24V1ZM278 24V80H280V24H278ZM255 103H24V105H255V103ZM1 80V24H-1V80H1ZM24 103C11.2974 103 1 92.7025 1 80H-1C-1 93.8071 10.1929 105 24 105V103ZM278 80C278 92.7026 267.703 103 255 103V105C268.807 105 280 93.8071 280 80H278ZM255 1C267.703 1 278 11.2975 278 24H280C280 10.1929 268.807 -1 255 -1V1ZM24 -1C10.1929 -1 -1 10.1929 -1 24H1C1 11.2974 11.2975 1 24 1V-1Z" fill="#E8E8E8"/>
<path d="M227.5 0.5H261.561C266.407 0.5 270.973 2.76583 273.904 6.62422L297.574 37.7851C303.957 46.1871 303.957 57.8129 297.574 66.2149L273.904 97.3758C270.973 101.234 266.407 103.5 261.561 103.5H227.5V52V0.5Z" fill="white" stroke="#E8E8E8"/>
<path d="M226 1H229V102.833H226V51.9167V1Z" fill="white"/>
</svg>
